<?xml version="1.0" standalone="no"?>
<!DOCTYPE svg PUBLIC "-//W3C//DTD SVG 1.1//EN" "http://www.w3.org/Graphics/SVG/1.1/DTD/svg11.dtd" >
<svg xmlns="http://www.w3.org/2000/svg" xmlns:xlink="http://www.w3.org/1999/xlink" version="1.1">
<metadata>
Created by FontForge 20170731 at Mon Jun 19 02:27:25 2000
 By Aleksey,,,
Copyright (c) 1996 Microsoft Corporation. All rights reserved.
</metadata>
<defs>
<font id="TrebuchetMSDigiscream" horiz-adv-x="1074" >
  <font-face 
    font-family="Trebuchet MS Digiscream"
    font-weight="400"
    font-stretch="normal"
    units-per-em="2048"
    panose-1="2 11 6 3 2 2 2 2 2 4"
    ascent="1638"
    descent="-410"
    x-height="1071"
    cap-height="1465"
    bbox="-176 -537 1962 1923"
    underline-thickness="127"
    underline-position="-450"
    unicode-range="U+0020-F007"
  />
<missing-glyph horiz-adv-x="1024" 
d="M128 0v1923h768v-1923h-768zM256 128h512v1667h-512v-1667z" />
    <glyph glyph-name=".notdef" horiz-adv-x="1024" 
d="M128 0v1923h768v-1923h-768zM256 128h512v1667h-512v-1667z" />
    <glyph glyph-name=".null" horiz-adv-x="0" 
 />
    <glyph glyph-name="nonmarkingreturn" horiz-adv-x="617" 
 />
    <glyph glyph-name="space" unicode=" " horiz-adv-x="617" 
 />
    <glyph glyph-name="exclam" unicode="!" horiz-adv-x="752" 
d="M413 382h-71q-77 503 -77 699v410h226v-409q0 -191 -78 -700zM384 281q62 0 106 -44t44 -106t-44 -106.5t-106 -44.5t-106 44.5t-44 106.5t44 106t106 44z" />
    <glyph glyph-name="quotedbl" unicode="&#x22;" horiz-adv-x="665" 
d="M229 1086h-133l-24 381h184zM559 1086h-133l-24 381h184z" />
    <glyph glyph-name="numbersign" unicode="#" 
d="M879 947l-99 -393h161v-128h-194l-124 -446h-127l124 446h-297l-124 -446h-130l123 446h-155v128h188l99 393h-172v128h205l102 412h131l-103 -412h297l103 412h127l-103 -412h175v-128h-207zM455 947l-99 -393h297l99 393h-297z" />
    <glyph glyph-name="dollar" unicode="$" 
d="M458 -25q-62 4 -164 32q-109 30 -154 60l72 184q54 -39 139 -67.5t151 -28.5q109 0 181 58q78 62 78 169q0 124 -76 188q-37 30 -162 88l-118 55q-269 125 -269 397q0 144 91 246q88 100 231 126v160h139v-153q215 -9 291 -78l-59 -174q-48 34 -130 58.5t-144 24.5
q-97 0 -157 -54q-62 -57 -62 -153q0 -114 81 -180q42 -35 152 -86l92 -43q154 -72 225 -175q75 -108 75 -274q0 -150 -110 -252q-99 -92 -254 -118v-231h-139v221z" />
    <glyph glyph-name="percent" unicode="%" horiz-adv-x="1229" 
d="M218 -20h-127l883 1511h126zM61 1162q0 138 73 230q80 99 214 99q139 0 210 -109q60 -92 60 -239q0 -141 -67 -234q-76 -105 -212 -105q-278 0 -278 358zM187 1152q0 -91 27 -156q37 -90 116 -90q162 0 162 245q0 238 -147 238q-84 0 -126 -81q-32 -63 -32 -156zM601 338
q0 138 73 230q80 99 214 99q139 0 210 -109q60 -92 60 -239q0 -141 -67 -234q-76 -105 -212 -105q-278 0 -278 358zM727 328q0 -91 27 -156q37 -90 116 -90q162 0 162 245q0 238 -147 238q-84 0 -126 -81q-32 -63 -32 -156z" />
    <glyph glyph-name="ampersand" unicode="&#x26;" horiz-adv-x="1446" 
d="M929 51q-145 -71 -350 -71q-216 0 -329 130q-108 124 -108 343q0 121 37 207q36 83 124 170q-141 140 -141 291q0 171 130 274q120 96 295 96q206 0 318 -91l-83 -154q-114 95 -204 95q-266 0 -266 -240q0 -130 116 -220h372v183l190 73v-259h249v-160h-249v-330
q0 -118 25 -167q36 -71 140 -71q54 0 127 37l27 -177q-105 -30 -240 -30q-93 0 -180 71zM840 314v404h-403q-95 -122 -95 -256q0 -312 305 -312q136 0 204 49q-11 46 -11 115z" />
    <glyph glyph-name="quotesingle" unicode="'" horiz-adv-x="327" 
d="M229 1086h-133l-24 381h184z" />
    <glyph glyph-name="parenleft" unicode="(" horiz-adv-x="752" 
d="M618 1475v-83q-198 -286 -198 -835q0 -652 198 -880v-105q-217 151 -328 440q-97 250 -97 547q0 246 110 513q125 304 315 403z" />
    <glyph glyph-name="parenright" unicode=")" horiz-adv-x="752" 
d="M193 -428v105q198 228 198 880q0 549 -198 835v83q190 -99 315 -403q110 -267 110 -513q0 -297 -97 -547q-111 -289 -328 -440z" />
    <glyph glyph-name="asterisk" unicode="*" horiz-adv-x="752" 
d="M597 1127l-173 -3l158 -105l47 -62l-122 -104l-54 70l-82 159l-91 -162l-43 -64l-131 101l50 69l158 83l-176 27l-90 32l72 150l96 -37l125 -95l-63 205v79h176v-76l-60 -211l158 107l74 27l57 -161z" />
    <glyph glyph-name="plus" unicode="+" 
d="M611 706h349v-141h-349v-345h-141v345h-348v141h348v343h141v-343z" />
    <glyph glyph-name="comma" unicode="," horiz-adv-x="752" 
d="M224 -363l-51 72q172 141 172 240q0 44 -30 88q-86 41 -86 118q0 57 45 91q41 31 99 31q59 0 102 -51q40 -49 40 -109q0 -160 -79 -277q-62 -91 -212 -203z" />
    <glyph glyph-name="hyphen" unicode="-" horiz-adv-x="752" 
d="M159 506v175h428v-175h-428z" />
    <glyph glyph-name="hyphen" unicode="&#x2010;" horiz-adv-x="752" 
d="M159 506v175h428v-175h-428z" />
    <glyph glyph-name="period" unicode="." horiz-adv-x="752" 
d="M354 281q62 0 106 -44t44 -106t-44 -106.5t-106 -44.5t-106 44.5t-44 106.5t44 106t106 44z" />
    <glyph glyph-name="slash" unicode="/" 
d="M350 0h-161l531 1471h159z" />
    <glyph glyph-name="zero" unicode="0" 
d="M64 777q0 281 102 473q129 241 386 241q283 0 389 -249q72 -167 72 -497q0 -303 -88 -499q-121 -266 -387 -266q-300 0 -406 268q-68 170 -68 529zM264 759q0 -609 260 -609q190 0 254 228q35 124 35 380q0 179 -13 267q-24 168 -101 240q-60 56 -152 56
q-283 0 -283 -562z" />
    <glyph glyph-name="one" unicode="1" 
d="M498 0v1123l-298 -186v187q113 57 236 153q130 102 202 194h60v-1471h-200z" />
    <glyph glyph-name="two" unicode="2" 
d="M69 0v40l459 703q144 221 144 375q0 203 -229 203q-78 0 -148 -40q-73 -42 -107 -110l-129 106q38 109 151 165q96 49 223 49q197 0 315 -86q134 -97 134 -287q0 -165 -158 -416l-329 -522h574v-180h-900z" />
    <glyph glyph-name="three" unicode="3" 
d="M109 104l96 154q98 -108 248 -108q278 0 278 272q0 129 -83 204t-213 75h-16v162h9q254 0 254 224q0 234 -239 234q-130 0 -207 -87l-89 136q93 121 311 121q178 0 300 -91q134 -101 134 -274q0 -111 -61 -206q-63 -100 -165 -136q130 -42 202.5 -141.5t72.5 -236.5
q0 -215 -141 -326q-129 -100 -350 -100q-207 0 -341 124z" />
    <glyph glyph-name="four" unicode="4" 
d="M882 399v-399h-190v399h-667v114l787 958h70v-918h148v-154h-148zM692 1072l-430 -519h430v519z" />
    <glyph glyph-name="five" unicode="5" 
d="M232 715l-68 47v709h729v-170h-539v-356q74 55 188 55q212 0 320 -131q99 -121 99 -338q0 -551 -491 -551q-205 0 -340 114l77 167q136 -111 262 -111q282 0 282 352q0 328 -278 328q-134 0 -241 -115z" />
    <glyph glyph-name="six" unicode="6" 
d="M672 1491l97 -107q-98 -39 -260 -241t-179 -306q83 80 231 80q204 0 319 -132q109 -126 109 -333q0 -201 -109 -334q-118 -143 -314 -143q-482 0 -482 639q0 250 174 525q184 293 414 352zM294 458q0 -313 257 -313q117 0 179 93q54 81 54 204t-55 207q-64 98 -181 98
q-254 0 -254 -289z" />
    <glyph glyph-name="seven" unicode="7" 
d="M428 0h-222q162 515 569 1281h-691v190h950v-78l-129 -254q-130 -257 -275 -597q-137 -322 -202 -542z" />
    <glyph glyph-name="eight" unicode="8" 
d="M353 815q-91 49 -149 134q-62 91 -62 189q0 168 116 264q109 89 280 89q178 0 283 -86q114 -94 114 -268q0 -95 -62 -194.5t-147 -147.5q264 -148 264 -389q0 -207 -127 -319q-120 -107 -330 -107q-444 0 -444 426q0 124 75.5 242.5t188.5 166.5zM598 877
q136 128 136 265q0 84 -57 133q-54 46 -139 46q-196 0 -196 -181q0 -134 256 -263zM509 728q-220 -119 -220 -322q0 -110 67.5 -183t176.5 -73q113 0 185 71.5t72 184.5q0 111 -92 198q-55 51 -189 124z" />
    <glyph glyph-name="nine" unicode="9" 
d="M391 -25l-97 107q98 39 260.5 240.5t178.5 305.5q-82 -79 -231 -79q-204 0 -319 132q-109 126 -109 333q0 201 109 334q118 143 314 143q482 0 482 -639q0 -250 -174 -525q-184 -293 -414 -352zM769 1008q0 313 -257 313q-117 0 -179 -93q-54 -81 -54 -204t55 -207
q64 -98 181 -98q254 0 254 289z" />
    <glyph glyph-name="colon" unicode=":" horiz-adv-x="752" 
d="M354 1091q62 0 106 -44t44 -106t-44 -106.5t-106 -44.5t-106 44.5t-44 106.5t44 106t106 44zM354 281q62 0 106 -44t44 -106t-44 -106.5t-106 -44.5t-106 44.5t-44 106.5t44 106t106 44z" />
    <glyph glyph-name="semicolon" unicode=";" horiz-adv-x="752" 
d="M354 1091q62 0 106 -44t44 -106t-44 -106.5t-106 -44.5t-106 44.5t-44 106.5t44 106t106 44zM224 -363l-51 72q172 141 172 240q0 44 -30 88q-86 41 -86 118q0 57 45 91q41 31 99 31q59 0 102 -51q40 -49 40 -109q0 -160 -79 -277q-62 -91 -212 -203z" />
    <glyph glyph-name="less" unicode="&#x3c;" 
d="M889 218l-739 358v123l739 354v-161l-571 -255l571 -258v-161z" />
    <glyph glyph-name="equal" unicode="=" 
d="M960 876v-141h-838v141h838zM960 536v-141h-838v141h838z" />
    <glyph glyph-name="greater" unicode="&#x3e;" 
d="M889 576l-739 -358v161l571 258l-571 255v161l739 -354v-123z" />
    <glyph glyph-name="question" unicode="?" horiz-adv-x="752" 
d="M366 429h-132q-34 95 -34 137q0 163 147 327q157 176 157 269q0 176 -213 176q-102 0 -178 -73l-73 143q101 83 301 83q148 0 245 -81q104 -86 104 -231q0 -150 -104 -261l-146 -156q-88 -94 -88 -242q0 -21 14 -91zM324 281q62 0 106 -44t44 -106t-44 -106.5t-106 -44.5
t-106 44.5t-44 106.5t44 106t106 44z" />
    <glyph glyph-name="at" unicode="@" horiz-adv-x="1578" 
d="M1176 116q46 -17 135 -58q-192 -192 -506 -192q-321 0 -513 196.5t-192 518.5q0 323 189 530q196 214 516 214q304 0 488.5 -180.5t184.5 -483.5q0 -162 -80 -277q-91 -130 -246 -130q-159 0 -230 70q-85 -78 -201 -78q-104 0 -169 55q-70 59 -70 161q0 142 137 208
q104 50 263 50q-15 147 -118 147q-105 0 -166 -56l-48 99q82 61 200 61q278 0 278 -319v-239q72 -53 122 -53q186 0 186 304q0 233 -149.5 386t-381.5 153q-261 0 -416 -183q-147 -173 -147 -439q0 -264 149 -426q153 -167 414 -167q231 0 371 128zM882 393v234h-51
q-195 0 -195 -160q0 -55 38.5 -89.5t94.5 -34.5q63 0 113 50z" />
    <glyph glyph-name="A" unicode="A" horiz-adv-x="1208" 
d="M982 0l-101 309h-545l-108 -309h-224l595 1485h53l552 -1485h-222zM616 1101l-227 -645h435z" />
    <glyph glyph-name="B" unicode="B" horiz-adv-x="1159" 
d="M568 0h-418v1465q267 13 385 13q199 0 317 -79q138 -93 138 -282q0 -99 -73 -184t-171 -107q333 -80 333 -403q0 -206 -157 -321q-140 -102 -354 -102zM350 1305v-421q63 -6 156 -6q284 0 284 231q0 203 -261 203q-100 0 -179 -7zM350 729v-559q103 -10 158 -10
q174 0 259 59q102 71 102 236q0 143 -82 211q-90 74 -276 68z" />
    <glyph glyph-name="C" unicode="C" horiz-adv-x="1225" 
d="M1085 1411l-67 -171q-96 70 -302 70q-216 0 -331 -199q-95 -163 -95 -395q0 -223 100 -379q117 -182 328 -182q206 0 317 146l110 -153q-174 -173 -448 -173q-306 0 -471 231q-146 204 -146 522q0 308 158 523q175 239 473 239q239 0 374 -79z" />
    <glyph glyph-name="D" unicode="D" horiz-adv-x="1256" 
d="M445 0h-295v1465q282 10 361 10q309 0 487 -186.5t178 -496.5q0 -792 -731 -792zM350 1285v-1095q67 -10 166 -10q234 0 352 189q98 157 98 406q0 520 -467 520q-28 0 -149 -10z" />
    <glyph glyph-name="E" unicode="E" horiz-adv-x="1097" 
d="M350 1285v-407h484v-170h-484v-528h664v-180h-864v1465h875v-180h-675z" />
    <glyph glyph-name="F" unicode="F" horiz-adv-x="1075" 
d="M350 1285v-407h515v-170h-515v-708h-200v1465h905v-180h-705z" />
    <glyph glyph-name="G" unicode="G" horiz-adv-x="1385" 
d="M1165 1363l-83 -165q-151 112 -296 112q-244 0 -377 -179q-119 -160 -119 -412q0 -243 119 -396q131 -168 367 -168q160 0 259 96v343h-203v170h403v-638q-85 -72 -238 -114q-135 -37 -263 -37q-318 0 -493 222q-161 204 -161 530q0 337 186 545q194 218 526 218
q229 0 373 -127z" />
    <glyph glyph-name="H" unicode="H" horiz-adv-x="1340" 
d="M990 0v708h-640v-708h-200v1465h200v-587h640v587h200v-1465h-200z" />
    <glyph glyph-name="I" unicode="I" horiz-adv-x="570" 
d="M185 0v1465h200v-1465h-200z" />
    <glyph glyph-name="J" unicode="J" horiz-adv-x="976" 
d="M49 293h175q24 -133 159 -133q171 0 217 109q26 61 26 270v926h200v-918q0 -281 -80 -407q-101 -160 -362 -160q-144 0 -235 85t-100 228z" />
    <glyph glyph-name="K" unicode="K" horiz-adv-x="1179" 
d="M958 0l-413 674l-195 -277v-397h-200v1465h200v-797l544 797h223l-438 -635l500 -830h-221z" />
    <glyph glyph-name="L" unicode="L" horiz-adv-x="1037" 
d="M150 0v1465h200v-1285h662v-180h-862z" />
    <glyph glyph-name="M" unicode="M" horiz-adv-x="1453" 
d="M1253 0l-174 941l-320 -961h-50l-329 961l-170 -941h-190l274 1465h91l349 -1069l322 1069h90l297 -1465h-190z" />
    <glyph glyph-name="N" unicode="N" horiz-adv-x="1307" 
d="M1097 -20l-757 1071v-1051h-190v1465h80l737 -1013v1013h190v-1485h-60z" />
    <glyph glyph-name="O" unicode="O" horiz-adv-x="1380" 
d="M80 745q0 301 141 508q162 238 449 238q322 0 485 -218q145 -195 145 -528q0 -338 -143 -539q-163 -231 -487 -231q-297 0 -455 246q-135 210 -135 524zM290 745q0 -223 78 -384q102 -206 302 -206q228 0 335 191q85 151 85 399q0 566 -420 566q-208 0 -305 -190
q-75 -146 -75 -376z" />
    <glyph glyph-name="P" unicode="P" horiz-adv-x="1142" 
d="M350 564v-564h-200v1465q227 10 274 10q638 0 638 -427q0 -494 -564 -494q-34 0 -148 10zM350 1285v-541l134 -10q372 0 372 293q0 268 -397 268q-40 0 -109 -10z" />
    <glyph glyph-name="Q" unicode="Q" horiz-adv-x="1384" 
d="M1520 -108l-30 -195q-524 0 -687 291q-31 -13 -133 -13q-297 0 -455 246q-135 210 -135 524q0 301 141 508q162 238 449 238q322 0 485 -218q145 -195 145 -528q0 -505 -302 -693q109 -160 366 -160h156zM670 1311q-208 0 -305 -190q-75 -146 -75 -376q0 -223 78 -384
q102 -206 302 -206q228 0 335 191q85 152 85 399q0 566 -420 566z" />
    <glyph glyph-name="R" unicode="R" horiz-adv-x="1192" 
d="M963 0l-391 629q-67 0 -212 10v-639h-200v1465q61 0 183 7.5t183 7.5q528 0 528 -420q0 -131 -79 -242q-83 -115 -208 -144l425 -674h-229zM360 1285v-476q72 -10 140 -10q169 0 246 48q98 60 98 217q0 140 -121 194q-83 37 -245 37q-30 0 -118 -10z" />
    <glyph glyph-name="S" unicode="S" horiz-adv-x="985" 
d="M84 67l73 184q131 -96 289 -96q109 0 181 58q78 62 78 169q0 105 -71 174q-49 47 -167 102l-118 55q-269 125 -269 397q0 172 123 279q116 101 291 101q243 0 338 -79l-59 -174q-48 34 -130 58.5t-144 24.5q-97 0 -157 -54q-62 -57 -62 -153q0 -113 80 -179
q40 -33 153 -87l120 -57q144 -68 207.5 -165t63.5 -255q0 -188 -154 -298q-137 -97 -333 -97q-195 0 -333 92z" />
    <glyph glyph-name="T" unicode="T" horiz-adv-x="1189" 
d="M684 1285v-1285h-200v1285h-466v180h1153v-180h-487z" />
    <glyph glyph-name="U" unicode="U" horiz-adv-x="1328" 
d="M150 1465h200v-1003q0 -137 86 -222t224 -85q147 0 232.5 83t85.5 229v998h200v-1019q0 -229 -146 -354q-137 -117 -370 -117q-239 0 -372 115q-140 122 -140 357v1018z" />
    <glyph glyph-name="V" unicode="V" horiz-adv-x="1203" 
d="M660 -20h-101l-546 1485h222l377 -1079l363 1079h215z" />
    <glyph glyph-name="W" unicode="W" horiz-adv-x="1745" 
d="M1276 -20h-63l-349 1010l-326 -1010h-63l-462 1485h208l294 -1023l322 1023h70l318 -1021l299 1021h208z" />
    <glyph glyph-name="X" unicode="X" horiz-adv-x="1140" 
d="M915 0l-364 588l-336 -588h-202l432 760l-397 706l197 -1l313 -554l345 554h201l-455 -709l478 -756h-212z" />
    <glyph glyph-name="Y" unicode="Y" horiz-adv-x="1168" 
d="M685 656v-656h-200v656l-472 809h206l365 -640l365 640h206z" />
    <glyph glyph-name="Z" unicode="Z" horiz-adv-x="1127" 
d="M100 0v50l630 1235h-620v180h895v-50l-632 -1235h654v-180h-927z" />
    <glyph glyph-name="bracketleft" unicode="[" horiz-adv-x="752" 
d="M202 -420v1930h463v-170h-263v-1590h263v-170h-463z" />
    <glyph glyph-name="backslash" unicode="\" horiz-adv-x="728" 
d="M512 0l-515 1471h142l516 -1471h-143z" />
    <glyph glyph-name="bracketright" unicode="]" horiz-adv-x="752" 
d="M550 -420h-463v170h263v1590h-263v170h463v-1930z" />
    <glyph glyph-name="asciicircum" unicode="^" 
d="M763 907l-244 448l-248 -452h-122l318 568h107l316 -564h-127z" />
    <glyph glyph-name="underscore" unicode="_" 
d="M-8 -254v129h1085v-129h-1085z" />
    <glyph glyph-name="grave" unicode="`" 
d="M559 1285l-226 333h197l169 -333h-140z" />
    <glyph glyph-name="a" unicode="a" horiz-adv-x="1076" 
d="M740 123q-114 -143 -349 -143q-132 0 -221.5 93.5t-89.5 225.5q0 185 167 294q145 94 339 94q60 0 136 -26q0 260 -232 260q-178 0 -274 -96l-80 159q59 48 158 78q93 29 174 29q232 0 338 -106t106 -337v-384q0 -141 84 -188v-95q-102 0 -157 25q-71 32 -99 117z
M722 526q-90 20 -126 20q-123 0 -218 -61q-108 -71 -108 -188q0 -167 197 -167q144 0 255 137v259z" />
    <glyph glyph-name="b" unicode="b" horiz-adv-x="1141" 
d="M297 77l-67 -97h-95v1530h190v-518q32 43 113 73q73 26 135 26q225 0 362 -157q131 -150 131 -379q0 -254 -125 -408q-135 -167 -383 -167q-169 0 -261 97zM325 847v-618q0 -20 76 -55q73 -34 103 -34q202 0 286 103q76 94 76 302q0 175 -92 278q-97 108 -270 108
q-34 0 -96 -29t-83 -55z" />
    <glyph glyph-name="c" unicode="c" horiz-adv-x="1014" 
d="M943 984l-94 -134q-36 36 -116 60q-72 21 -131 21q-168 0 -257 -123q-80 -109 -80 -283q0 -178 85 -278q91 -107 266 -107q128 0 258 99l75 -160q-153 -99 -379 -99q-234 0 -372 158q-133 150 -133 387q0 258 149 412t406 154q73 0 170.5 -31.5t152.5 -75.5z" />
    <glyph glyph-name="d" unicode="d" horiz-adv-x="1141" 
d="M814 1v79q-99 -99 -288 -99q-217 0 -339 160q-112 145 -112 368t129 395q142 187 358 187q166 0 252 -78v497h190v-1509h-190zM814 823q-72 108 -197 108q-162 0 -256 -124q-86 -113 -86 -280q0 -387 352 -387q43 0 104 26q66 29 83 63v594z" />
    <glyph glyph-name="e" unicode="e" horiz-adv-x="1117" 
d="M1037 517h-772q0 -168 84 -269q90 -108 253 -108t272 95l80 -137q-43 -43 -135 -76q-116 -42 -254 -42q-201 0 -343 137q-157 152 -157 406q0 265 161 425q144 143 341 143q218 0 349 -119q136 -123 136 -339q0 -63 -15 -116zM576 931q-122 0 -208 -77t-98 -199h593
q0 125 -81 202q-79 74 -206 74z" />
    <glyph glyph-name="f" unicode="f" horiz-adv-x="757" 
d="M714 1340q-58 20 -108 20q-93 0 -149 -72q-51 -66 -51 -161q0 -27 5 -56h218v-160h-218v-911h-190v911h-156v160h156q0 188 88 306q99 133 280 133q83 0 178 -30z" />
    <glyph glyph-name="g" unicode="g" horiz-adv-x="1028" 
d="M96 -293l103 152q166 -111 306 -111q98 0 174 30q104 42 104 125q0 130 -188 130q-41 0 -123 -16t-124 -16q-228 0 -228 172q0 59 66 106q51 35 120 52q-226 106 -226 368q0 170 117.5 281t288.5 111q158 0 247 -65l95 114l124 -117l-114 -86q73 -95 73 -248
q0 -164 -101 -272.5t-265 -125.5l-157 -16q-37 -4 -74 -20q-48 -22 -48 -50q0 -41 98 -41q45 0 134.5 15.5t134.5 15.5q148 0 236 -67q99 -75 99 -218q0 -166 -159 -256q-130 -74 -309 -74q-99 0 -211 34q-118 36 -193 93zM499 938q-99 0 -161.5 -69.5t-62.5 -170.5
q0 -109 56 -181q62 -78 168 -78t164 79q51 70 51 180q0 97 -58 167q-62 73 -157 73z" />
    <glyph glyph-name="h" unicode="h" horiz-adv-x="1119" 
d="M795 0v673q0 115 -54 183q-59 75 -171 75q-67 0 -136.5 -39t-108.5 -96v-796h-190v1510h190v-557q41 64 132 103q81 35 165 35q179 0 275 -122q88 -112 88 -296v-673h-190z" />
    <glyph glyph-name="i" unicode="i" horiz-adv-x="584" 
d="M331 1476q49 0 83.5 -34t34.5 -83t-34.5 -83.5t-83.5 -34.5t-83 34.5t-34 83.5t34 83t83 34zM227 0v911h-147v160h337v-1071h-190z" />
    <glyph glyph-name="j" unicode="j" horiz-adv-x="751" 
d="M428 1476q49 0 83.5 -34t34.5 -83t-34.5 -83.5t-83.5 -34.5t-83 34.5t-34 83.5t34 83t83 34zM18 -420v170q170 0 243 43q98 57 98 212v906h-213v160h403v-1062q0 -429 -531 -429z" />
    <glyph glyph-name="k" unicode="k" horiz-adv-x="1033" 
d="M827 0l-336 536l-166 -171v-365h-190v1510h190v-937l410 498h222l-343 -407l419 -664h-206z" />
    <glyph glyph-name="l" unicode="l" horiz-adv-x="604" 
d="M150 303v1207h190v-1175q0 -84 48 -134.5t131 -50.5v-170q-369 0 -369 323z" />
    <glyph glyph-name="m" unicode="m" horiz-adv-x="1700" 
d="M1375 0v678q0 253 -219 253q-64 0 -125.5 -40t-85.5 -99v-792h-190v761q0 86 -68 131q-59 39 -149 39q-58 0 -122 -44t-91 -97v-790h-190v1071h124l63 -124q110 144 275 144q230 0 322 -143q35 67 130 107q83 36 168 36q171 0 262 -103q86 -99 86 -272v-716h-190z" />
    <glyph glyph-name="n" unicode="n" horiz-adv-x="1119" 
d="M794 0v623q0 150 -38 217q-50 91 -186 91q-67 0 -137 -39.5t-108 -95.5v-796h-190v1071h130l60 -138q94 158 307 158q352 0 352 -428v-663h-190z" />
    <glyph glyph-name="o" unicode="o" horiz-adv-x="1099" 
d="M65 538q0 236 122 388q133 165 363 165q241 0 368 -159q116 -146 116 -394q0 -245 -117 -394q-129 -164 -367 -164q-239 0 -368 163q-117 149 -117 395zM265 538q0 -403 285 -403q150 0 225 133q59 107 59 270q0 398 -284 398q-149 0 -224 -131q-61 -107 -61 -267z" />
    <glyph glyph-name="p" unicode="p" horiz-adv-x="1141" 
d="M325 59v-479h-190v1491h190v-88q108 108 261 108q246 0 370 -160q112 -144 112 -398q0 -246 -124 -394q-133 -159 -374 -159q-58 0 -131 20q-89 23 -114 59zM325 840v-624q22 -33 86 -56q57 -20 103 -20q354 0 354 400q0 196 -78 289q-84 102 -275 102q-43 0 -102 -30
q-55 -27 -88 -61z" />
    <glyph glyph-name="q" unicode="q" horiz-adv-x="1141" 
d="M821 -420v483q-83 -83 -278 -83q-234 0 -358 164q-110 146 -110 389t131 396q139 162 378 162q140 0 261 -101l51 81h115v-1491h-190zM821 849q-82 82 -205 82q-168 0 -259 -118q-82 -107 -82 -280q0 -172 79 -276q88 -117 254 -117q137 0 213 70v639z" />
    <glyph glyph-name="r" unicode="r" horiz-adv-x="796" 
d="M717 888q-62 43 -125 43q-113 0 -186 -105q-66 -95 -66 -212v-614h-190v1071h190v-171q104 191 309 191q51 0 147 -18z" />
    <glyph glyph-name="s" unicode="s" horiz-adv-x="829" 
d="M65 64l67 180q159 -104 256 -104q176 0 176 148q0 105 -170 182q-98 44 -137 67q-75 43 -118 95q-67 78 -67 179q0 140 107 215q94 65 240 65q117 0 295 -74l-54 -176q-113 90 -227 90q-60 0 -106 -26q-55 -32 -55 -87q0 -103 117 -156l136 -62q239 -109 239 -313
q0 -157 -116 -237q-101 -70 -265 -70q-169 0 -318 84z" />
    <glyph glyph-name="t" unicode="t" horiz-adv-x="812" 
d="M203 921h-124v150h124v224l190 73v-297h294v-150h-294v-532q0 -120 35 -177q45 -72 157 -72q73 0 151 37l28 -167q-118 -30 -259 -30q-135 0 -221 101q-81 95 -81 232v608z" />
    <glyph glyph-name="u" unicode="u" horiz-adv-x="1119" 
d="M315 1071v-683q0 -248 215 -248q86 0 166.5 50t108.5 129v752h190v-1071h-190v148q-36 -70 -138 -121q-95 -47 -179 -47q-180 0 -274 105q-89 101 -89 283v703h190z" />
    <glyph glyph-name="v" unicode="v" horiz-adv-x="1003" 
d="M521 -20h-50l-459 1094h208l283 -750l289 750h199z" />
    <glyph glyph-name="w" unicode="w" horiz-adv-x="1524" 
d="M1125 -20h-50l-314 729l-313 -729h-50l-383 1094h203l229 -703l285 703h50l294 -703l246 703h187z" />
    <glyph glyph-name="x" unicode="x" horiz-adv-x="1026" 
d="M787 0l-292 390l-261 -390h-222l389 548l-357 523h214l240 -368l269 368h210l-389 -523l426 -548h-227z" />
    <glyph glyph-name="y" unicode="y" horiz-adv-x="1010" 
d="M544 -182q-41 -113 -172 -180q-116 -58 -248 -58v170q101 0 186 44q103 55 103 147q0 83 -38 196q-4 12 -73 189l-290 745h194l315 -828l283 828h194z" />
    <glyph glyph-name="z" unicode="z" horiz-adv-x="972" 
d="M338 170h594v-170h-892v50l609 851h-599v170h876v-54z" />
    <glyph glyph-name="braceleft" unicode="{" horiz-adv-x="752" 
d="M568 -420q-155 0 -266 70q-129 81 -129 228q0 73 37 216t37 217q0 198 -209 212v84q98 8 153.5 69t55.5 160q0 65 -37 190t-37 190q0 140 128 219q109 67 258 67h148v-133h-175q-164 0 -164 -184q0 -57 31.5 -165t31.5 -165q0 -158 -225 -288q88 -36 149 -95
q76 -74 76 -155q0 -63 -31.5 -184.5t-31.5 -184.5q0 -228 263 -228h76v-140h-139z" />
    <glyph glyph-name="bar" unicode="|" 
d="M462 -276v1681h146v-1681h-146z" />
    <glyph glyph-name="braceright" unicode="}" horiz-adv-x="752" 
d="M38 -420v140h76q263 0 263 228q0 63 -31.5 184.5t-31.5 184.5q0 81 76 155q61 59 149 95q-225 130 -225 288q0 57 31.5 165t31.5 165q0 184 -164 184h-175v133h148q149 0 258 -67q128 -79 128 -219q0 -65 -37 -190t-37 -190q0 -99 55.5 -160t153.5 -69v-84
q-209 -14 -209 -212q0 -74 37 -216.5t37 -216.5q0 -147 -129 -228q-111 -70 -266 -70h-139z" />
    <glyph glyph-name="asciitilde" unicode="~" 
d="M904 716q-53 -207 -192 -207q-66 0 -186.5 38.5t-168.5 38.5q-71 0 -108 -77h-91q13 79 58 138q53 69 126 69q72 0 194 -38.5t172 -38.5q81 0 108 77h88z" />
    <glyph glyph-name="nonbreakingspace" unicode="&#xa0;" horiz-adv-x="617" 
 />
    <glyph glyph-name="exclamdown" unicode="&#xa1;" horiz-adv-x="752" 
d="M384 790q-62 0 -106 44t-44 106t44 106.5t106 44.5t106 -44.5t44 -106.5t-44 -106t-106 -44zM491 -11v-409h-226v410q0 196 77 699h71q78 -512 78 -700z" />
    <glyph glyph-name="cent" unicode="&#xa2;" 
d="M694 1217h102l-71 -248q109 -26 170 -75l-78 -113q-38 38 -130 56l-169 -590q53 -20 116 -20q102 0 206 79l60 -136q-122 -79 -303 -79q-62 0 -119 15l-74 -258h-115l88 300q-184 110 -184 379q0 203 115 326t316 127zM425 309l158 532q-109 -17 -172 -112
q-58 -87 -58 -202q0 -140 72 -218z" />
    <glyph glyph-name="sterling" unicode="&#xa3;" 
d="M140 856h82v148q0 210 96 341q108 146 311 146q205 0 293 -121l-94 -133q-64 86 -222 86q-184 0 -184 -311v-156h199v-149h-199v-527h223q152 0 234 113l142 -111q-102 -182 -445 -182h-444v139q90 30 90 129v439h-82v149z" />
    <glyph glyph-name="currency" unicode="&#xa4;" 
d="M932 246l-143 144q-121 -84 -253 -84q-131 0 -253 84l-143 -144l-84 88l143 140q-82 127 -82 252q0 124 82 251l-143 140l84 88l143 -143q122 83 253 83q132 0 253 -83l143 143l85 -88l-143 -140q82 -127 82 -251q0 -125 -82 -252l143 -140zM236 726q0 -126 86.5 -213
t212.5 -87q125 0 212 87.5t87 212.5q0 126 -86.5 212.5t-212.5 86.5t-212.5 -86.5t-86.5 -212.5z" />
    <glyph glyph-name="yen" unicode="&#xa5;" horiz-adv-x="1168" 
d="M932 475h-254v-475h-200v475h-243v131h243v50l-439 809h206l332 -640l368 640h197l-464 -809v-50h254v-131z" />
    <glyph glyph-name="brokenbar" unicode="&#xa6;" 
d="M472 694v723h146v-723h-146zM472 -276v723h146v-723h-146z" />
    <glyph glyph-name="section" unicode="&#xa7;" horiz-adv-x="929" 
d="M204 937q-119 68 -119 243q0 143 128 232q114 78 264 78q65 0 153 -29.5t136 -69.5l-62 -184q-108 103 -222 103q-187 0 -187 -127q0 -75 76 -115q37 -20 142 -46q295 -74 295 -297q0 -98 -81 -182q123 -82 123 -221q0 -173 -116 -263q-106 -82 -284 -82q-222 0 -349 92
l68 186q109 -100 270 -100q201 0 201 147q0 135 -229 182q-109 22 -196 84q-108 76 -108 172q0 136 97 197zM355 881q-64 -42 -64 -93q0 -85 114 -126q55 -20 191 -50q18 36 18 95q0 88 -91 130q-2 0 -168 44z" />
    <glyph glyph-name="dieresis" unicode="&#xa8;" 
d="M302 1513q47 0 79.5 -32.5t32.5 -79.5t-32.5 -80t-79.5 -33t-80 33t-33 80t33 79.5t80 32.5zM774 1513q47 0 80 -32.5t33 -79.5t-33 -80t-80 -33t-79.5 33t-32.5 80t32.5 79.5t79.5 32.5z" />
    <glyph glyph-name="copyright" unicode="&#xa9;" horiz-adv-x="1460" 
d="M105 661q0 281 197 477.5t478 196.5t477.5 -196.5t196.5 -477.5t-196.5 -478t-477.5 -197t-478 197t-197 478zM1344 661q0 236 -164 400t-400 164t-400.5 -164t-164.5 -400t164.5 -400.5t400.5 -164.5t400 164.5t164 400.5zM1038 335q-100 -99 -254 -99q-174 0 -267 131
q-83 115 -83 296q0 175 89 297q100 135 269 135q137 0 212 -44l-38 -97q-54 39 -172 39q-122 0 -187 -112q-54 -92 -54 -224q0 -126 57 -215q66 -103 186 -103q117 0 179 82z" />
    <glyph glyph-name="ordfeminine" unicode="&#xaa;" horiz-adv-x="752" 
d="M513 902q-75 -78 -216 -78q-84 0 -144 46q-66 50 -66 132q0 126 110 193q91 56 226 56h39l35 -1q-3 127 -138 127q-109 0 -175 -62l-58 108q91 68 219 68q288 0 288 -267v-225q0 -79 53 -107v-67q-139 0 -173 77zM498 1157h-72q-77 0 -134 -31q-71 -38 -71 -109
q0 -42 42 -65q35 -19 81 -19q92 0 154 69v155z" />
    <glyph glyph-name="guillemotleft" unicode="&#xab;" 
d="M129 535v64l355 244v-125l-212 -157l212 -138v-125zM528 535v64l355 244v-125l-212 -157l212 -138v-125z" />
    <glyph glyph-name="logicalnot" unicode="&#xac;" 
d="M960 886v-486h-141v345h-697v141h838z" />
    <glyph glyph-name="sfthyphen" unicode="&#xad;" horiz-adv-x="752" 
d="M159 506v175h428v-175h-428z" />
    <glyph glyph-name="registered" unicode="&#xae;" horiz-adv-x="1460" 
d="M105 661q0 281 197 477.5t478 196.5t477.5 -196.5t196.5 -477.5t-196.5 -478t-477.5 -197t-478 197t-197 478zM1344 661q0 236 -164 400t-400 164t-400.5 -164t-164.5 -400t164.5 -400.5t400.5 -164.5t400 164.5t164 400.5zM990 254l-211 357h-120v-357h-119v831h213
q300 0 300 -230q0 -160 -161 -226l227 -375h-129zM659 983v-276q15 -2 78 -2q103 0 141 21q55 29 55 121q0 137 -180 137h-47z" />
    <glyph glyph-name="overscore" unicode="&#xaf;" 
d="M-8 1546v129h1085v-129h-1085z" />
    <glyph glyph-name="degree" unicode="&#xb0;" 
d="M508 1072q-88 0 -150 61t-62 149t62 148.5t150 60.5t149.5 -60.5t61.5 -148.5t-61.5 -149t-149.5 -61zM508 1421q-57 0 -98 -41t-41 -98t41 -98t98 -41t98 41t41 98t-41 98t-98 41z" />
    <glyph glyph-name="plusminus" unicode="&#xb1;" 
d="M611 706h349v-141h-349v-345h-141v345h-348v141h348v343h141v-343zM960 121v-141h-838v141h838z" />
    <glyph glyph-name="twosuperior" unicode="&#xb2;" horiz-adv-x="924" 
d="M184 595v24l266 414q86 134 86 223q0 122 -128 122q-107 0 -169 -124l-77 63q26 75 93.5 124t146.5 49q264 0 264 -224q0 -120 -93 -266l-183 -287h334v-118h-540z" />
    <glyph glyph-name="threesuperior" unicode="&#xb3;" horiz-adv-x="929" 
d="M185 657l59 102q49 -54 148 -54q163 0 163 142q0 77 -48 120t-126 43h-10v102h6q148 0 148 139q0 119 -139 119q-85 0 -124 -44l-54 91q56 73 187 73q107 0 180 -55q80 -62 80 -165q0 -67 -36.5 -124.5t-98.5 -80.5q165 -54 165 -227q0 -253 -295 -253q-129 0 -205 72z
" />
    <glyph glyph-name="acute" unicode="&#xb4;" 
d="M744 1618l-226 -333h-140l169 333h197z" />
    <glyph glyph-name="mu1" unicode="&#xb5;" horiz-adv-x="1119" 
d="M325 18v-438h-190v1491h190v-623q0 -302 235 -302q76 0 142.5 40t92.5 109v776h190v-1071h-190v148q-36 -80 -118 -125q-77 -43 -169 -43q-108 0 -183 38z" />
    <glyph glyph-name="paragraph" unicode="&#xb6;" 
d="M778 -250v1616h-158v-1616h-154v893q-348 0 -348 434q0 165 70 278q82 134 237 134h507v-1739h-154z" />
    <glyph glyph-name="middot" unicode="&#xb7;" horiz-adv-x="752" 
d="M355 801q62 0 106 -44t44 -106t-44 -106.5t-106 -44.5t-106 44.5t-44 106.5t44 106t106 44z" />
    <glyph glyph-name="cedilla" unicode="&#xb8;" 
d="M355 -455l-24 99q65 0 114 20q68 27 68 82q0 74 -90 74v119q91 0 148 -51q61 -53 61 -142q0 -106 -90 -159q-73 -42 -187 -42z" />
    <glyph glyph-name="onesuperior" unicode="&#xb9;" horiz-adv-x="924" 
d="M439 595v674l-188 -112v113q197 99 282 208h36v-883h-130z" />
    <glyph glyph-name="ordmasculine" unicode="&#xba;" horiz-adv-x="752" 
d="M66 1159q0 146 83 237q86 95 230 95q151 0 233 -92q79 -87 79 -240q0 -151 -79 -241q-84 -94 -233 -94q-150 0 -233 94q-80 89 -80 241zM207 1159q0 -221 172 -221q171 0 171 221q0 218 -171 218q-172 0 -172 -218z" />
    <glyph glyph-name="guillemotright" unicode="&#xbb;" 
d="M524 535l-355 -237v125l212 138l-212 157v125l355 -244v-64zM923 535l-355 -237v125l212 138l-212 157v125l355 -244v-64z" />
    <glyph glyph-name="onequarter" unicode="&#xbc;" horiz-adv-x="1668" 
d="M349 -35h-128l974 1526h126zM259 595v664l-178 -102v113q197 99 282 208h36v-883h-140zM1400 210v-210h-130v210h-404v68l492 605h42v-571h89v-102h-89zM1270 623l-252 -311h252v311z" />
    <glyph glyph-name="onehalf" unicode="&#xbd;" horiz-adv-x="1668" 
d="M336 -35h-128l974 1526h126zM289 595v674l-188 -112v113q197 99 282 208h36v-883h-130zM1024 0v24l266 414q86 134 86 223q0 122 -128 122q-107 0 -169 -124l-77 63q26 75 93.5 124t146.5 49q264 0 264 -224q0 -120 -93 -266l-183 -287h334v-118h-540z" />
    <glyph glyph-name="threequarters" unicode="&#xbe;" horiz-adv-x="1668" 
d="M429 -35h-128l974 1526h126zM125 657l59 102q49 -54 148 -54q163 0 163 142q0 77 -48 120t-126 43h-10v102h6q148 0 148 139q0 119 -139 119q-85 0 -124 -44l-54 91q56 73 187 73q107 0 180 -55q80 -62 80 -165q0 -67 -36.5 -124.5t-98.5 -80.5q165 -54 165 -227
q0 -253 -295 -253q-129 0 -205 72zM1430 210v-210h-130v210h-404v68l492 605h42v-571h89v-102h-89zM1300 623l-252 -311h252v311z" />
    <glyph glyph-name="questiondown" unicode="&#xbf;" horiz-adv-x="752" 
d="M406 790q-62 0 -106 44t-44 106t44 106.5t106 44.5t106 -44.5t44 -106.5t-44 -106t-106 -44zM364 642h132q34 -95 34 -137q0 -163 -146 -326q-158 -177 -158 -270q0 -176 213 -176q102 0 178 73l73 -143q-101 -83 -301 -83q-148 0 -245 81q-104 86 -104 231
q0 150 104 261l146 156q88 94 88 242q0 21 -14 91z" />
    <glyph glyph-name="Agrave" unicode="&#xc0;" horiz-adv-x="1208" 
d="M982 0l-101 309h-545l-108 -309h-224l595 1485h53l552 -1485h-222zM616 1101l-227 -645h435zM578 1585l-226 333h197l169 -333h-140z" />
    <glyph glyph-name="Aacute" unicode="&#xc1;" horiz-adv-x="1208" 
d="M982 0l-101 309h-545l-108 -309h-224l595 1485h53l552 -1485h-222zM616 1101l-227 -645h435zM859 1918l-226 -333h-140l169 333h197z" />
    <glyph glyph-name="Acircumflex" unicode="&#xc2;" horiz-adv-x="1208" 
d="M982 0l-101 309h-545l-108 -309h-224l595 1485h53l552 -1485h-222zM616 1101l-227 -645h435zM778 1585l-163 189l-178 -189h-172l298 338h107l305 -338h-197z" />
    <glyph glyph-name="Atilde" unicode="&#xc3;" horiz-adv-x="1208" 
d="M982 0l-101 309h-545l-108 -309h-224l595 1485h53l552 -1485h-222zM616 1101l-227 -645h435zM932 1792q-53 -207 -192 -207q-56 0 -137.5 38.5t-107.5 38.5q-71 0 -108 -77h-91q13 79 58 138q53 69 126 69q69 0 149 -38.5t107 -38.5q81 0 108 77h88z" />
    <glyph glyph-name="Adieresis" unicode="&#xc4;" horiz-adv-x="1208" 
d="M982 0l-101 309h-545l-108 -309h-224l595 1485h53l552 -1485h-222zM616 1101l-227 -645h435zM386 1813q47 0 79.5 -32.5t32.5 -79.5t-32.5 -80t-79.5 -33t-80 33t-33 80t33 79.5t80 32.5zM858 1813q47 0 80 -32.5t33 -79.5t-33 -80t-80 -33t-79.5 33t-32.5 80t32.5 79.5
t79.5 32.5z" />
    <glyph glyph-name="Aring" unicode="&#xc5;" horiz-adv-x="1208" 
d="M683 1402l521 -1402h-222l-101 309h-549l-104 -309h-224l562 1404q-67 20 -109 75.5t-42 125.5q0 88 62 148.5t150 60.5t149.5 -60.5t61.5 -148.5q0 -72 -43 -128.5t-112 -74.5zM627 1505q42 0 71.5 29t29.5 71t-29.5 70.5t-71.5 28.5t-72 -28.5t-30 -70.5t30 -71t72 -29
zM616 1101l-227 -645h435z" />
    <glyph glyph-name="AE" unicode="&#xc6;" horiz-adv-x="1775" 
d="M828 307h-448l-139 -307h-224l705 1465h981v-180h-675v-407h484v-170h-484v-528h664v-180h-864v307zM828 1285l-384 -829h384v829z" />
    <glyph glyph-name="Ccedilla" unicode="&#xc7;" horiz-adv-x="1225" 
d="M1085 1411l-67 -171q-96 70 -302 70q-216 0 -331 -199q-95 -163 -95 -395q0 -223 100 -379q117 -182 328 -182q206 0 317 146l110 -153q-174 -173 -448 -173q-306 0 -471 231q-146 204 -146 522q0 308 158 523q175 239 473 239q239 0 374 -79zM467 -455l-24 99
q65 0 114 20q68 27 68 82q0 74 -90 74v119q91 0 148 -51q61 -53 61 -142q0 -106 -90 -159q-73 -42 -187 -42z" />
    <glyph glyph-name="Egrave" unicode="&#xc8;" horiz-adv-x="1097" 
d="M350 1285v-407h484v-170h-484v-528h664v-180h-864v1465h875v-180h-675zM592 1585l-226 333h197l169 -333h-140z" />
    <glyph glyph-name="Eacute" unicode="&#xc9;" horiz-adv-x="1097" 
d="M350 1285v-407h484v-170h-484v-528h664v-180h-864v1465h875v-180h-675zM802 1918l-226 -333h-140l169 333h197z" />
    <glyph glyph-name="Ecircumflex" unicode="&#xca;" horiz-adv-x="1097" 
d="M350 1285v-407h484v-170h-484v-528h664v-180h-864v1465h875v-180h-675zM718 1585l-163 189l-178 -189h-172l298 338h107l305 -338h-197z" />
    <glyph glyph-name="Edieresis" unicode="&#xcb;" horiz-adv-x="1097" 
d="M350 1285v-407h484v-170h-484v-528h664v-180h-864v1465h875v-180h-675zM343 1813q47 0 79.5 -32.5t32.5 -79.5t-32.5 -80t-79.5 -33t-80 33t-33 80t33 79.5t80 32.5zM815 1813q47 0 80 -32.5t33 -79.5t-33 -80t-80 -33t-79.5 33t-32.5 80t32.5 79.5t79.5 32.5z" />
    <glyph glyph-name="Igrave" unicode="&#xcc;" horiz-adv-x="570" 
d="M185 0v1465h200v-1465h-200zM329 1585l-226 333h197l169 -333h-140z" />
    <glyph glyph-name="Iacute" unicode="&#xcd;" horiz-adv-x="570" 
d="M185 0v1465h200v-1465h-200zM577 1918l-226 -333h-140l169 333h197z" />
    <glyph glyph-name="Icircumflex" unicode="&#xce;" horiz-adv-x="570" 
d="M185 0v1465h200v-1465h-200zM433 1585l-163 189l-178 -189h-172l298 338h107l305 -338h-197z" />
    <glyph glyph-name="Idieresis" unicode="&#xcf;" horiz-adv-x="570" 
d="M185 0v1465h200v-1465h-200zM82 1813q47 0 79.5 -32.5t32.5 -79.5t-32.5 -80t-79.5 -33t-80 33t-33 80t33 79.5t80 32.5zM554 1813q47 0 80 -32.5t33 -79.5t-33 -80t-80 -33t-79.5 33t-32.5 80t32.5 79.5t79.5 32.5z" />
    <glyph glyph-name="Eth" unicode="&#xd0;" horiz-adv-x="1385" 
d="M1200 1363l-83 -165q-151 112 -296 112q-244 0 -377 -179q-119 -160 -119 -412q0 -243 119 -396q131 -168 367 -168q160 0 259 96v343h-203v170h403v-638q-85 -72 -238 -114q-135 -37 -263 -37q-318 0 -493 222q-161 204 -161 530q0 337 186 545q194 218 526 218
q229 0 373 -127zM1095 1910q0 -137 -104 -233q-102 -92 -240 -92q-144 0 -231.5 90.5t-87.5 234.5h141q-3 -67 53.5 -119t124.5 -52q78 0 137 46q64 50 64 125h143z" />
    <glyph glyph-name="Ntilde" unicode="&#xd1;" horiz-adv-x="1307" 
d="M1097 -20l-757 1071v-1051h-190v1465h80l737 -1013v1013h190v-1485h-60zM930 1792q-53 -207 -192 -207q-56 0 -137.5 38.5t-107.5 38.5q-71 0 -108 -77h-91q13 79 58 138q53 69 126 69q69 0 149 -38.5t107 -38.5q81 0 108 77h88z" />
    <glyph glyph-name="Ograve" unicode="&#xd2;" horiz-adv-x="1380" 
d="M80 745q0 301 141 508q162 238 449 238q322 0 485 -218q145 -195 145 -528q0 -338 -143 -539q-163 -231 -487 -231q-297 0 -455 246q-135 210 -135 524zM290 745q0 -223 78 -384q102 -206 302 -206q228 0 335 191q85 151 85 399q0 566 -420 566q-208 0 -305 -190
q-75 -146 -75 -376zM718 1585l-226 333h197l169 -333h-140z" />
    <glyph glyph-name="Oacute" unicode="&#xd3;" horiz-adv-x="1380" 
d="M80 745q0 301 141 508q162 238 449 238q322 0 485 -218q145 -195 145 -528q0 -338 -143 -539q-163 -231 -487 -231q-297 0 -455 246q-135 210 -135 524zM290 745q0 -223 78 -384q102 -206 302 -206q228 0 335 191q85 151 85 399q0 566 -420 566q-208 0 -305 -190
q-75 -146 -75 -376zM889 1918l-226 -333h-140l169 333h197z" />
    <glyph glyph-name="Ocircumflex" unicode="&#xd4;" horiz-adv-x="1380" 
d="M80 745q0 301 141 508q162 238 449 238q322 0 485 -218q145 -195 145 -528q0 -338 -143 -539q-163 -231 -487 -231q-297 0 -455 246q-135 210 -135 524zM290 745q0 -223 78 -384q102 -206 302 -206q228 0 335 191q85 151 85 399q0 566 -420 566q-208 0 -305 -190
q-75 -146 -75 -376zM828 1585l-163 189l-178 -189h-172l298 338h107l305 -338h-197z" />
    <glyph glyph-name="Otilde" unicode="&#xd5;" horiz-adv-x="1380" 
d="M80 745q0 301 141 508q162 238 449 238q322 0 485 -218q145 -195 145 -528q0 -338 -143 -539q-163 -231 -487 -231q-297 0 -455 246q-135 210 -135 524zM290 745q0 -223 78 -384q102 -206 302 -206q228 0 335 191q85 151 85 399q0 566 -420 566q-208 0 -305 -190
q-75 -146 -75 -376zM1000 1792q-53 -207 -192 -207q-56 0 -137.5 38.5t-107.5 38.5q-71 0 -108 -77h-91q13 79 58 138q53 69 126 69q69 0 149 -38.5t107 -38.5q81 0 108 77h88z" />
    <glyph glyph-name="Odieresis" unicode="&#xd6;" horiz-adv-x="1380" 
d="M80 745q0 301 141 508q162 238 449 238q322 0 485 -218q145 -195 145 -528q0 -338 -143 -539q-163 -231 -487 -231q-297 0 -455 246q-135 210 -135 524zM290 745q0 -223 78 -384q102 -206 302 -206q228 0 335 191q85 151 85 399q0 566 -420 566q-208 0 -305 -190
q-75 -146 -75 -376zM450 1813q47 0 79.5 -32.5t32.5 -79.5t-32.5 -80t-79.5 -33t-80 33t-33 80t33 79.5t80 32.5zM922 1813q47 0 80 -32.5t33 -79.5t-33 -80t-80 -33t-79.5 33t-32.5 80t32.5 79.5t79.5 32.5z" />
    <glyph glyph-name="multiply" unicode="&#xd7;" 
d="M544 728l317 317l100 -99l-317 -317l314 -315l-100 -100l-314 315l-317 -317l-100 99l317 317l-321 321l100 100z" />
    <glyph glyph-name="Oslash" unicode="&#xd8;" horiz-adv-x="1345" 
d="M350 66l-67 -91h-216l160 211q-160 214 -160 559q0 301 141 508q162 238 449 238q214 0 361 -100l67 100h202l-144 -220q144 -194 144 -526q0 -338 -143 -539q-163 -231 -487 -231q-176 0 -307 91zM913 1229q-99 82 -256 82q-208 0 -305 -190q-75 -146 -75 -376
q0 -217 77 -378zM1019 1083l-562 -856q84 -72 200 -72q228 0 335 191q85 151 85 399q0 205 -58 338z" />
    <glyph glyph-name="Ugrave" unicode="&#xd9;" horiz-adv-x="1328" 
d="M150 1465h200v-1003q0 -137 86 -222t224 -85q147 0 232.5 83t85.5 229v998h200v-1019q0 -229 -146 -354q-137 -117 -370 -117q-239 0 -372 115q-140 122 -140 357v1018zM659 1585l-226 333h197l169 -333h-140z" />
    <glyph glyph-name="Uacute" unicode="&#xda;" horiz-adv-x="1328" 
d="M150 1465h200v-1003q0 -137 86 -222t224 -85q147 0 232.5 83t85.5 229v998h200v-1019q0 -229 -146 -354q-137 -117 -370 -117q-239 0 -372 115q-140 122 -140 357v1018zM854 1918l-226 -333h-140l169 333h197z" />
    <glyph glyph-name="Ucircumflex" unicode="&#xdb;" horiz-adv-x="1328" 
d="M150 1465h200v-1003q0 -137 86 -222t224 -85q147 0 232.5 83t85.5 229v998h200v-1019q0 -229 -146 -354q-137 -117 -370 -117q-239 0 -372 115q-140 122 -140 357v1018zM792 1585l-163 189l-178 -189h-172l298 338h107l305 -338h-197z" />
    <glyph glyph-name="Udieresis" unicode="&#xdc;" horiz-adv-x="1328" 
d="M150 1465h200v-1003q0 -137 86 -222t224 -85q147 0 232.5 83t85.5 229v998h200v-1019q0 -229 -146 -354q-137 -117 -370 -117q-239 0 -372 115q-140 122 -140 357v1018zM402 1813q47 0 79.5 -32.5t32.5 -79.5t-32.5 -80t-79.5 -33t-80 33t-33 80t33 79.5t80 32.5z
M874 1813q47 0 80 -32.5t33 -79.5t-33 -80t-80 -33t-79.5 33t-32.5 80t32.5 79.5t79.5 32.5z" />
    <glyph glyph-name="Yacute" unicode="&#xdd;" horiz-adv-x="570" 
d="M185 0v1465h200v-1465h-200zM283 1820q49 0 83.5 -34t34.5 -83t-34.5 -83.5t-83.5 -34.5t-83 34.5t-34 83.5t34 83t83 34z" />
    <glyph glyph-name="Thorn" unicode="&#xde;" horiz-adv-x="985" 
d="M84 67l73 184q131 -96 289 -96q109 0 181 58q78 62 78 169q0 105 -71 174q-49 47 -167 102l-118 55q-269 125 -269 397q0 172 123 279q116 101 291 101q243 0 338 -79l-59 -174q-48 34 -130 58.5t-144 24.5q-97 0 -157 -54q-62 -57 -62 -153q0 -113 80 -179
q40 -33 153 -87l120 -57q144 -68 207.5 -165t63.5 -255q0 -188 -154 -298q-137 -97 -333 -97q-195 0 -333 92zM305 -455l-24 99q65 0 114 20q68 27 68 82q0 74 -90 74v119q91 0 148 -51q61 -53 61 -142q0 -106 -90 -159q-73 -42 -187 -42z" />
    <glyph glyph-name="germandbls" unicode="&#xdf;" horiz-adv-x="1119" 
d="M522 3l36 151l56 -9q66 -11 132 36q61 43 83 142q10 48 10 110q0 157 -87 231q-58 48 -152 125q-84 69 -84 146q0 16 55 71q65 64 72 76q26 38 26 96q0 162 -169 162q-113 0 -152 -114q-23 -67 -23 -210v-1016h-190v1115q0 172 82 278q91 117 257 117q154 0 252 -60
q118 -73 118 -218q0 -128 -95 -237q-33 -38 -33 -50q0 -26 35 -48q28 -15 57 -29q231 -120 231 -422q0 -204 -84 -325q-97 -141 -292 -141q-76 0 -141 23z" />
    <glyph glyph-name="agrave" unicode="&#xe0;" horiz-adv-x="1076" 
d="M740 123q-114 -143 -349 -143q-132 0 -221.5 93.5t-89.5 225.5q0 185 167 294q145 94 339 94q60 0 136 -26q0 260 -232 260q-178 0 -274 -96l-80 159q59 48 158 78q93 29 174 29q232 0 338 -106t106 -337v-384q0 -141 84 -188v-95q-102 0 -157 25q-71 32 -99 117z
M722 526q-90 20 -126 20q-123 0 -218 -61q-108 -71 -108 -188q0 -167 197 -167q144 0 255 137v259zM505 1285l-226 333h197l169 -333h-140z" />
    <glyph glyph-name="aacute" unicode="&#xe1;" horiz-adv-x="1076" 
d="M740 123q-114 -143 -349 -143q-132 0 -221.5 93.5t-89.5 225.5q0 185 167 294q145 94 339 94q60 0 136 -26q0 260 -232 260q-178 0 -274 -96l-80 159q59 48 158 78q93 29 174 29q232 0 338 -106t106 -337v-384q0 -141 84 -188v-95q-102 0 -157 25q-71 32 -99 117z
M722 526q-90 20 -126 20q-123 0 -218 -61q-108 -71 -108 -188q0 -167 197 -167q144 0 255 137v259zM765 1618l-226 -333h-140l169 333h197z" />
    <glyph glyph-name="acircumflex" unicode="&#xe2;" horiz-adv-x="1076" 
d="M740 123q-114 -143 -349 -143q-132 0 -221.5 93.5t-89.5 225.5q0 185 167 294q145 94 339 94q60 0 136 -26q0 260 -232 260q-178 0 -274 -96l-80 159q59 48 158 78q93 29 174 29q232 0 338 -106t106 -337v-384q0 -141 84 -188v-95q-102 0 -157 25q-71 32 -99 117z
M722 526q-90 20 -126 20q-123 0 -218 -61q-108 -71 -108 -188q0 -167 197 -167q144 0 255 137v259zM680 1285l-163 189l-178 -189h-172l298 338h107l305 -338h-197z" />
    <glyph glyph-name="atilde" unicode="&#xe3;" horiz-adv-x="1076" 
d="M740 123q-114 -143 -349 -143q-132 0 -221.5 93.5t-89.5 225.5q0 185 167 294q145 94 339 94q60 0 136 -26q0 260 -232 260q-178 0 -274 -96l-80 159q59 48 158 78q93 29 174 29q232 0 338 -106t106 -337v-384q0 -141 84 -188v-95q-102 0 -157 25q-71 32 -99 117z
M722 526q-90 20 -126 20q-123 0 -218 -61q-108 -71 -108 -188q0 -167 197 -167q144 0 255 137v259zM833 1492q-53 -207 -192 -207q-56 0 -137.5 38.5t-107.5 38.5q-71 0 -108 -77h-91q13 79 58 138q53 69 126 69q69 0 149 -38.5t107 -38.5q81 0 108 77h88z" />
    <glyph glyph-name="adieresis" unicode="&#xe4;" horiz-adv-x="1076" 
d="M740 123q-114 -143 -349 -143q-132 0 -221.5 93.5t-89.5 225.5q0 185 167 294q145 94 339 94q60 0 136 -26q0 260 -232 260q-178 0 -274 -96l-80 159q59 48 158 78q93 29 174 29q232 0 338 -106t106 -337v-384q0 -141 84 -188v-95q-102 0 -157 25q-71 32 -99 117z
M722 526q-90 20 -126 20q-123 0 -218 -61q-108 -71 -108 -188q0 -167 197 -167q144 0 255 137v259zM276 1513q47 0 79.5 -32.5t32.5 -79.5t-32.5 -80t-79.5 -33t-80 33t-33 80t33 79.5t80 32.5zM748 1513q47 0 80 -32.5t33 -79.5t-33 -80t-80 -33t-79.5 33t-32.5 80
t32.5 79.5t79.5 32.5z" />
    <glyph glyph-name="aring" unicode="&#xe5;" horiz-adv-x="1076" 
d="M740 123q-114 -143 -349 -143q-132 0 -221.5 93.5t-89.5 225.5q0 185 167 294q145 94 339 94q60 0 136 -26q0 260 -232 260q-178 0 -274 -96l-80 159q59 48 158 78q93 29 174 29q232 0 338 -106t106 -337v-384q0 -141 84 -188v-95q-102 0 -157 25q-71 32 -99 117z
M722 526q-90 20 -126 20q-123 0 -218 -61q-108 -71 -108 -188q0 -167 197 -167q144 0 255 137v259zM514 1704q88 0 149.5 -60.5t61.5 -148.5t-61.5 -149t-149.5 -61t-150 61t-62 149t62 148.5t150 60.5zM514 1395q42 0 71.5 29t29.5 71t-29.5 70.5t-71.5 28.5t-72 -28.5
t-30 -70.5t30 -71t72 -29z" />
    <glyph glyph-name="ae" unicode="&#xe6;" horiz-adv-x="1788" 
d="M1696 517h-762q0 -162 81 -265q89 -112 246 -112q175 0 274 109l80 -152q-132 -117 -391 -117q-170 0 -298 95q5 -50 11 -95h-161q-11 47 -35 143q-114 -143 -339 -143q-131 0 -225 84q-97 88 -97 217q0 199 163 308q140 94 349 94q56 0 132 -22q0 260 -233 260
q-178 0 -274 -96l-80 159q59 48 158 78q93 29 174 29q293 0 389 -173q148 173 368 173q218 0 351.5 -130t133.5 -348q0 -46 -15 -96zM934 655h598q0 129 -90 205q-85 71 -217 71q-111 0 -201 -83t-90 -193zM724 526q-60 20 -127 20q-116 0 -215 -65q-112 -73 -112 -184
q0 -167 198 -167q145 0 256 137v259z" />
    <glyph glyph-name="ccedilla" unicode="&#xe7;" horiz-adv-x="1014" 
d="M943 984l-94 -134q-36 36 -116 60q-72 21 -131 21q-168 0 -257 -123q-80 -109 -80 -283q0 -178 85 -278q91 -107 266 -107q128 0 258 99l75 -160q-153 -99 -379 -99q-234 0 -372 158q-133 150 -133 387q0 258 149 412t406 154q73 0 170.5 -31.5t152.5 -75.5zM407 -455
l-24 99q65 0 114 20q68 27 68 82q0 74 -90 74v119q91 0 148 -51q61 -53 61 -142q0 -106 -90 -159q-73 -42 -187 -42z" />
    <glyph glyph-name="egrave" unicode="&#xe8;" horiz-adv-x="1117" 
d="M1037 517h-772q0 -168 84 -269q90 -108 253 -108t272 95l80 -137q-43 -43 -135 -76q-116 -42 -254 -42q-201 0 -343 137q-157 152 -157 406q0 265 161 425q144 143 341 143q218 0 349 -119q136 -123 136 -339q0 -63 -15 -116zM576 931q-122 0 -208 -77t-98 -199h593
q0 125 -81 202q-79 74 -206 74zM587 1285l-226 333h197l169 -333h-140z" />
    <glyph glyph-name="eacute" unicode="&#xe9;" horiz-adv-x="1117" 
d="M1037 517h-772q0 -168 84 -269q90 -108 253 -108t272 95l80 -137q-43 -43 -135 -76q-116 -42 -254 -42q-201 0 -343 137q-157 152 -157 406q0 265 161 425q144 143 341 143q218 0 349 -119q136 -123 136 -339q0 -63 -15 -116zM576 931q-122 0 -208 -77t-98 -199h593
q0 125 -81 202q-79 74 -206 74zM824 1618l-226 -333h-140l169 333h197z" />
    <glyph glyph-name="ecircumflex" unicode="&#xea;" horiz-adv-x="1117" 
d="M1037 517h-772q0 -168 84 -269q90 -108 253 -108t272 95l80 -137q-43 -43 -135 -76q-116 -42 -254 -42q-201 0 -343 137q-157 152 -157 406q0 265 161 425q144 143 341 143q218 0 349 -119q136 -123 136 -339q0 -63 -15 -116zM576 931q-122 0 -208 -77t-98 -199h593
q0 125 -81 202q-79 74 -206 74zM729 1285l-163 189l-178 -189h-172l298 338h107l305 -338h-197z" />
    <glyph glyph-name="edieresis" unicode="&#xeb;" horiz-adv-x="1117" 
d="M1037 517h-772q0 -168 84 -269q90 -108 253 -108t272 95l80 -137q-43 -43 -135 -76q-116 -42 -254 -42q-201 0 -343 137q-157 152 -157 406q0 265 161 425q144 143 341 143q218 0 349 -119q136 -123 136 -339q0 -63 -15 -116zM576 931q-122 0 -208 -77t-98 -199h593
q0 125 -81 202q-79 74 -206 74zM327 1513q47 0 79.5 -32.5t32.5 -79.5t-32.5 -80t-79.5 -33t-80 33t-33 80t33 79.5t80 32.5zM799 1513q47 0 80 -32.5t33 -79.5t-33 -80t-80 -33t-79.5 33t-32.5 80t32.5 79.5t79.5 32.5z" />
    <glyph glyph-name="igrave" unicode="&#xec;" horiz-adv-x="584" 
d="M227 0v911h-147v160h340v-1071h-193zM288 1285l-226 333h197l169 -333h-140z" />
    <glyph glyph-name="iacute" unicode="&#xed;" horiz-adv-x="584" 
d="M227 0v911h-147v160h340v-1071h-193zM540 1618l-226 -333h-140l169 333h197z" />
    <glyph glyph-name="icircumflex" unicode="&#xee;" horiz-adv-x="584" 
d="M227 0v911h-147v160h340v-1071h-193zM443 1285l-163 189l-178 -189h-172l298 338h107l305 -338h-197z" />
    <glyph glyph-name="idieresis" unicode="&#xef;" horiz-adv-x="584" 
d="M227 0v911h-147v160h340v-1071h-193zM53 1513q47 0 79.5 -32.5t32.5 -79.5t-32.5 -80t-79.5 -33t-80 33t-33 80t33 79.5t80 32.5zM525 1513q47 0 80 -32.5t33 -79.5t-33 -80t-80 -33t-79.5 33t-32.5 80t32.5 79.5t79.5 32.5z" />
    <glyph glyph-name="eth" unicode="&#xf0;" horiz-adv-x="1028" 
d="M96 -293l103 152q166 -111 306 -111q98 0 174 30q104 42 104 125q0 130 -188 130q-41 0 -123 -16t-124 -16q-228 0 -228 172q0 59 66 106q51 35 120 52q-226 106 -226 368q0 170 117.5 281t288.5 111q158 0 247 -65l95 114l124 -117l-114 -86q73 -95 73 -248
q0 -164 -101 -272.5t-265 -125.5l-157 -16q-37 -4 -74 -20q-48 -22 -48 -50q0 -41 98 -41q45 0 134.5 15.5t134.5 15.5q148 0 236 -67q99 -75 99 -218q0 -166 -159 -256q-130 -74 -309 -74q-99 0 -211 34q-118 36 -193 93zM499 938q-99 0 -161.5 -69.5t-62.5 -170.5
q0 -109 56 -181q62 -78 168 -78t164 79q51 70 51 180q0 97 -58 167q-62 73 -157 73zM810 1610q0 -137 -104 -233q-102 -92 -240 -92q-144 0 -231.5 90.5t-87.5 234.5h141q-3 -67 53.5 -119t124.5 -52q78 0 137 46q64 50 64 125h143z" />
    <glyph glyph-name="ntilde" unicode="&#xf1;" horiz-adv-x="1119" 
d="M794 0v623q0 150 -38 217q-50 91 -186 91q-67 0 -137 -39.5t-108 -95.5v-796h-190v1071h130l60 -138q94 158 307 158q352 0 352 -428v-663h-190zM850 1492q-53 -207 -192 -207q-56 0 -137.5 38.5t-107.5 38.5q-71 0 -108 -77h-91q13 79 58 138q53 69 126 69
q69 0 149 -38.5t107 -38.5q81 0 108 77h88z" />
    <glyph glyph-name="ograve" unicode="&#xf2;" horiz-adv-x="1099" 
d="M65 538q0 236 122 388q133 165 363 165q241 0 368 -159q116 -146 116 -394q0 -245 -117 -394q-129 -164 -367 -164q-239 0 -368 163q-117 149 -117 395zM265 538q0 -403 285 -403q150 0 225 133q59 107 59 270q0 398 -284 398q-149 0 -224 -131q-61 -107 -61 -267z
M565 1285l-226 333h197l169 -333h-140z" />
    <glyph glyph-name="oacute" unicode="&#xf3;" horiz-adv-x="1099" 
d="M65 538q0 236 122 388q133 165 363 165q241 0 368 -159q116 -146 116 -394q0 -245 -117 -394q-129 -164 -367 -164q-239 0 -368 163q-117 149 -117 395zM265 538q0 -403 285 -403q150 0 225 133q59 107 59 270q0 398 -284 398q-149 0 -224 -131q-61 -107 -61 -267z
M774 1618l-226 -333h-140l169 333h197z" />
    <glyph glyph-name="ocircumflex" unicode="&#xf4;" horiz-adv-x="1099" 
d="M65 538q0 236 122 388q133 165 363 165q241 0 368 -159q116 -146 116 -394q0 -245 -117 -394q-129 -164 -367 -164q-239 0 -368 163q-117 149 -117 395zM265 538q0 -403 285 -403q150 0 225 133q59 107 59 270q0 398 -284 398q-149 0 -224 -131q-61 -107 -61 -267z
M709 1285l-163 189l-178 -189h-172l298 338h107l305 -338h-197z" />
    <glyph glyph-name="otilde" unicode="&#xf5;" horiz-adv-x="1099" 
d="M65 538q0 236 122 388q133 165 363 165q241 0 368 -159q116 -146 116 -394q0 -245 -117 -394q-129 -164 -367 -164q-239 0 -368 163q-117 149 -117 395zM265 538q0 -403 285 -403q150 0 225 133q59 107 59 270q0 398 -284 398q-149 0 -224 -131q-61 -107 -61 -267z
M880 1492q-53 -207 -192 -207q-56 0 -137.5 38.5t-107.5 38.5q-71 0 -108 -77h-91q13 79 58 138q53 69 126 69q69 0 149 -38.5t107 -38.5q81 0 108 77h88z" />
    <glyph glyph-name="odieresis" unicode="&#xf6;" horiz-adv-x="1099" 
d="M65 538q0 236 122 388q133 165 363 165q241 0 368 -159q116 -146 116 -394q0 -245 -117 -394q-129 -164 -367 -164q-239 0 -368 163q-117 149 -117 395zM265 538q0 -403 285 -403q150 0 225 133q59 107 59 270q0 398 -284 398q-149 0 -224 -131q-61 -107 -61 -267z
M328 1513q47 0 79.5 -32.5t32.5 -79.5t-32.5 -80t-79.5 -33t-80 33t-33 80t33 79.5t80 32.5zM800 1513q47 0 80 -32.5t33 -79.5t-33 -80t-80 -33t-79.5 33t-32.5 80t32.5 79.5t79.5 32.5z" />
    <glyph glyph-name="divide" unicode="&#xf7;" 
d="M694 1000q0 -62 -44 -106.5t-106 -44.5t-106 44.5t-44 106.5t44 106t106 44t106 -44t44 -106zM960 705v-141h-838v141h838zM694 250q0 -62 -44 -106.5t-106 -44.5t-106 44.5t-44 106.5t44 106t106 44t106 -44t44 -106z" />
    <glyph glyph-name="oslash" unicode="&#xf8;" horiz-adv-x="1117" 
d="M270 58l-58 -78h-151l119 162q-119 149 -119 396q0 236 122 388q133 165 363 165q165 0 278 -76l56 76h150l-117 -159q117 -146 117 -394q0 -245 -117 -394q-129 -164 -367 -164q-162 0 -276 78zM295 297l424 575q-75 54 -173 54q-151 0 -229 -124q-66 -104 -66 -264
q0 -148 44 -241zM373 199q69 -64 173 -64q151 0 230 132q64 109 64 271q0 146 -43 237z" />
    <glyph glyph-name="ugrave" unicode="&#xf9;" horiz-adv-x="1119" 
d="M315 1071v-683q0 -248 215 -248q86 0 166.5 50t108.5 129v752h190v-1071h-190v148q-36 -70 -138 -121q-95 -47 -179 -47q-180 0 -274 105q-89 101 -89 283v703h190zM547 1285l-226 333h197l169 -333h-140z" />
    <glyph glyph-name="uacute" unicode="&#xfa;" horiz-adv-x="1119" 
d="M315 1071v-683q0 -248 215 -248q86 0 166.5 50t108.5 129v752h190v-1071h-190v148q-36 -70 -138 -121q-95 -47 -179 -47q-180 0 -274 105q-89 101 -89 283v703h190zM740 1618l-226 -333h-140l169 333h197z" />
    <glyph glyph-name="ucircumflex" unicode="&#xfb;" horiz-adv-x="1119" 
d="M315 1071v-683q0 -248 215 -248q86 0 166.5 50t108.5 129v752h190v-1071h-190v148q-36 -70 -138 -121q-95 -47 -179 -47q-180 0 -274 105q-89 101 -89 283v703h190zM679 1285l-163 189l-178 -189h-172l298 338h107l305 -338h-197z" />
    <glyph glyph-name="udieresis" unicode="&#xfc;" horiz-adv-x="1119" 
d="M315 1071v-683q0 -248 215 -248q86 0 166.5 50t108.5 129v752h190v-1071h-190v148q-36 -70 -138 -121q-95 -47 -179 -47q-180 0 -274 105q-89 101 -89 283v703h190zM294 1513q47 0 79.5 -32.5t32.5 -79.5t-32.5 -80t-79.5 -33t-80 33t-33 80t33 79.5t80 32.5zM766 1513
q47 0 80 -32.5t33 -79.5t-33 -80t-80 -33t-79.5 33t-32.5 80t32.5 79.5t79.5 32.5z" />
    <glyph glyph-name="yacute" unicode="&#xfd;" horiz-adv-x="584" 
d="M227 0v911h-147v160h340v-1071h-193z" />
    <glyph glyph-name="thorn" unicode="&#xfe;" horiz-adv-x="829" 
d="M65 64l67 180q159 -104 256 -104q176 0 176 148q0 105 -170 182q-98 44 -137 67q-75 43 -118 95q-67 78 -67 179q0 140 107 215q94 65 240 65q117 0 295 -74l-54 -176q-113 90 -227 90q-60 0 -106 -26q-55 -32 -55 -87q0 -103 117 -156l136 -62q239 -109 239 -313
q0 -157 -116 -237q-101 -70 -265 -70q-169 0 -318 84zM225 -455l-24 99q65 0 114 20q68 27 68 82q0 74 -90 74v119q91 0 148 -51q61 -53 61 -142q0 -106 -90 -159q-73 -42 -187 -42z" />
    <glyph glyph-name="ydieresis" unicode="&#xff;" horiz-adv-x="1010" 
d="M544 -182q-41 -113 -172 -180q-116 -58 -248 -58v170q101 0 186 44q103 55 103 147q0 83 -38 196q-4 12 -73 189l-290 745h194l315 -828l283 828h194zM264 1513q47 0 79.5 -32.5t32.5 -79.5t-32.5 -80t-79.5 -33t-80 33t-33 80t33 79.5t80 32.5zM736 1513q47 0 80 -32.5
t33 -79.5t-33 -80t-80 -33t-79.5 33t-32.5 80t32.5 79.5t79.5 32.5z" />
    <glyph glyph-name="Abreve" unicode="&#x102;" horiz-adv-x="1208" 
d="M982 0l-101 309h-545l-108 -309h-224l595 1485h53l552 -1485h-222zM616 1101l-227 -645h435zM954 1910q0 -137 -104 -233q-102 -92 -240 -92q-144 0 -231.5 90.5t-87.5 234.5h141q-3 -67 53.5 -119t124.5 -52q78 0 137 46q64 50 64 125h143z" />
    <glyph glyph-name="abreve" unicode="&#x103;" horiz-adv-x="1076" 
d="M740 123q-114 -143 -349 -143q-132 0 -221.5 93.5t-89.5 225.5q0 185 167 294q145 94 339 94q60 0 136 -26q0 260 -232 260q-178 0 -274 -96l-80 159q59 48 158 78q93 29 174 29q232 0 338 -106t106 -337v-384q0 -141 84 -188v-95q-102 0 -157 25q-71 32 -99 117z
M722 526q-90 20 -126 20q-123 0 -218 -61q-108 -71 -108 -188q0 -167 197 -167q144 0 255 137v259zM850 1610q0 -137 -104 -233q-102 -92 -240 -92q-144 0 -231.5 90.5t-87.5 234.5h141q-3 -67 53.5 -119t124.5 -52q78 0 137 46q64 50 64 125h143z" />
    <glyph glyph-name="Aogonek" unicode="&#x104;" horiz-adv-x="1208" 
d="M1331 -338q-96 -35 -178 -35q-115 0 -191 66q-81 69 -81 182t82 184l-82 250h-545l-108 -309h-224l595 1485h53l552 -1485h-65q-44 0 -71 -47q-22 -40 -22 -86q0 -42 36 -69q32 -25 75 -25q54 0 107 31zM824 456l-208 645l-227 -645h435z" />
    <glyph glyph-name="aogonek" unicode="&#x105;" horiz-adv-x="1076" 
d="M1103 -196l67 -142q-96 -35 -178 -35q-115 0 -191 66q-81 69 -81 182q0 94 61 172q-25 29 -41 76q-114 -143 -349 -143q-132 0 -221.5 93.5t-89.5 225.5q0 185 167 294q145 94 339 94q60 0 136 -26q0 260 -232 260q-178 0 -274 -96l-80 159q59 48 158 78q93 29 174 29
q232 0 338 -106t106 -337v-384q0 -141 84 -188v-95q-31 0 -47 1q-64 -37 -64 -115q0 -94 111 -94q54 0 107 31zM722 526q-90 20 -126 20q-123 0 -218 -61q-108 -71 -108 -188q0 -167 197 -167q144 0 255 137v259z" />
    <glyph glyph-name="Cacute" unicode="&#x106;" horiz-adv-x="1225" 
d="M1085 1411l-67 -171q-96 70 -302 70q-216 0 -331 -199q-95 -163 -95 -395q0 -223 100 -379q117 -182 328 -182q206 0 317 146l110 -153q-174 -173 -448 -173q-306 0 -471 231q-146 204 -146 522q0 308 158 523q175 239 473 239q239 0 374 -79zM954 1918l-226 -333h-140
l169 333h197z" />
    <glyph glyph-name="cacute" unicode="&#x107;" horiz-adv-x="1014" 
d="M943 984l-94 -134q-36 36 -116 60q-72 21 -131 21q-168 0 -257 -123q-80 -109 -80 -283q0 -178 85 -278q91 -107 266 -107q128 0 258 99l75 -160q-153 -99 -379 -99q-234 0 -372 158q-133 150 -133 387q0 258 149 412t406 154q73 0 170.5 -31.5t152.5 -75.5zM834 1618
l-226 -333h-140l169 333h197z" />
    <glyph glyph-name="Ccaron" unicode="&#x10c;" horiz-adv-x="1225" 
d="M1085 1411l-67 -171q-96 70 -302 70q-216 0 -331 -199q-95 -163 -95 -395q0 -223 100 -379q117 -182 328 -182q206 0 317 146l110 -153q-174 -173 -448 -173q-306 0 -471 231q-146 204 -146 522q0 308 158 523q175 239 473 239q239 0 374 -79zM1049 1919l-305 -334h-107
l-298 338h172l178 -192l163 188h197z" />
    <glyph glyph-name="ccaron" unicode="&#x10d;" horiz-adv-x="1014" 
d="M943 984l-94 -134q-36 36 -116 60q-72 21 -131 21q-168 0 -257 -123q-80 -109 -80 -283q0 -178 85 -278q91 -107 266 -107q128 0 258 99l75 -160q-153 -99 -379 -99q-234 0 -372 158q-133 150 -133 387q0 258 149 412t406 154q73 0 170.5 -31.5t152.5 -75.5zM919 1619
l-305 -334h-107l-298 338h172l178 -192l163 188h197z" />
    <glyph glyph-name="Dcaron" unicode="&#x10e;" horiz-adv-x="1257" 
d="M446 0h-295v1465q282 10 361 10q309 0 487 -186.5t178 -496.5q0 -792 -731 -792zM351 1285v-1095q67 -10 166 -10q234 0 352 189q98 157 98 406q0 520 -467 520q-28 0 -149 -10zM940 1919l-305 -334h-107l-298 338h172l178 -192l163 188h197z" />
    <glyph glyph-name="dcaron" unicode="&#x10f;" horiz-adv-x="1416" 
d="M814 1v79q-99 -99 -288 -99q-217 0 -339 160q-112 145 -112 368t129 395q142 187 358 187q166 0 252 -78v497h190v-1509h-190zM814 823q-72 108 -197 108q-162 0 -256 -124q-86 -113 -86 -280q0 -387 352 -387q43 0 104 26q66 29 83 63v594zM1236 1083l-47 63
q91 73 91 125q0 29 -34.5 66.5t-34.5 69.5q0 103 102 103q108 0 108 -124q0 -188 -185 -303z" />
    <glyph glyph-name="Dslash" unicode="&#x110;" horiz-adv-x="1256" 
d="M1200 1363l-83 -165q-151 112 -296 112q-244 0 -377 -179q-119 -160 -119 -412q0 -243 119 -396q131 -168 367 -168q160 0 259 96v343h-203v170h403v-638q-85 -72 -238 -114q-135 -37 -263 -37q-318 0 -493 222q-161 204 -161 530q0 337 186 545q194 218 526 218
q229 0 373 -127zM1095 1910q0 -137 -104 -233q-102 -92 -240 -92q-144 0 -231.5 90.5t-87.5 234.5h141q-3 -67 53.5 -119t124.5 -52q78 0 137 46q64 50 64 125h143z" />
    <glyph glyph-name="dcroat" unicode="&#x111;" horiz-adv-x="1141" 
d="M1004 1h-190v79q-99 -99 -288 -99q-217 0 -339 160q-112 145 -112 368t129 395q142 187 358 187q166 0 252 -78v178h-249v150h249v169h190v-169h119v-150h-119v-1190zM814 239v574q-72 108 -197 108q-162 0 -256 -118q-86 -109 -86 -276q0 -377 352 -377q36 0 107 29
q80 32 80 60z" />
    <glyph glyph-name="Eogonek" unicode="&#x118;" horiz-adv-x="1097" 
d="M976 -196l67 -142q-96 -35 -178 -35q-115 0 -191 66q-81 69 -81 182q0 66 32 125h-475v1465h875v-180h-674v-407h483v-170h-483v-528h663v-180h-158q-14 0 -48 -27.5t-40 -45.5q-10 -27 -10 -60q0 -94 111 -94q54 0 107 31z" />
    <glyph glyph-name="eogonek" unicode="&#x119;" horiz-adv-x="1117" 
d="M865 -338q-96 -35 -178 -35q-115 0 -191 66q-81 69 -81 182q0 46 22 121q-182 45 -280 194q-92 138 -92 333q0 233 132 395q142 173 370 173q218 0 349 -119q136 -123 136 -339q0 -46 -15 -116h-772q0 -168 83 -268q90 -109 254 -109q163 0 272 95l79 -153
q-122 -91 -309 -100q-64 -37 -64 -115q0 -94 111 -94q54 0 107 31zM863 655q0 125 -81 202q-80 74 -206 74q-122 0 -208.5 -77t-97.5 -199h593z" />
    <glyph glyph-name="Ecaron" unicode="&#x11a;" horiz-adv-x="1097" 
d="M350 1285v-407h484v-170h-484v-528h664v-180h-864v1465h875v-180h-675zM939 1919l-305 -334h-107l-298 338h172l178 -192l163 188h197z" />
    <glyph glyph-name="ecaron" unicode="&#x11b;" horiz-adv-x="1117" 
d="M1037 517h-772q0 -168 84 -269q90 -108 253 -108t272 95l80 -137q-43 -43 -135 -76q-116 -42 -254 -42q-201 0 -343 137q-157 152 -157 406q0 265 161 425q144 143 341 143q218 0 349 -119q136 -123 136 -339q0 -63 -15 -116zM576 931q-122 0 -208 -77t-98 -199h593
q0 125 -81 202q-79 74 -206 74zM909 1619l-305 -334h-107l-298 338h172l178 -192l163 188h197z" />
    <glyph glyph-name="Gbreve" unicode="&#x11e;" horiz-adv-x="1385" 
d="M1165 1363l-83 -165q-151 112 -296 112q-244 0 -377 -179q-119 -160 -119 -412q0 -243 119 -396q131 -168 367 -168q160 0 259 96v343h-203v170h403v-638q-85 -72 -238 -114q-135 -37 -263 -37q-318 0 -493 222q-161 204 -161 530q0 337 186 545q194 218 526 218
q229 0 373 -127zM1060 1910q0 -137 -104 -233q-102 -92 -240 -92q-144 0 -231.5 90.5t-87.5 234.5h141q-3 -67 53.5 -119t124.5 -52q78 0 137 46q64 50 64 125h143z" />
    <glyph glyph-name="gbreve" unicode="&#x11f;" horiz-adv-x="1028" 
d="M96 -293l103 152q166 -111 306 -111q98 0 174 30q104 42 104 125q0 130 -188 130q-41 0 -123 -16t-124 -16q-228 0 -228 172q0 59 66 106q51 35 120 52q-226 106 -226 368q0 170 117.5 281t288.5 111q158 0 247 -65l95 114l124 -117l-114 -86q73 -95 73 -248
q0 -164 -101 -272.5t-265 -125.5l-157 -16q-37 -4 -74 -20q-48 -22 -48 -50q0 -41 98 -41q45 0 134.5 15.5t134.5 15.5q148 0 236 -67q99 -75 99 -218q0 -166 -159 -256q-130 -74 -309 -74q-99 0 -211 34q-118 36 -193 93zM499 938q-99 0 -161.5 -69.5t-62.5 -170.5
q0 -109 56 -181q62 -78 168 -78t164 79q51 70 51 180q0 97 -58 167q-62 73 -157 73zM810 1610q0 -137 -104 -233q-102 -92 -240 -92q-144 0 -231.5 90.5t-87.5 234.5h141q-3 -67 53.5 -119t124.5 -52q78 0 137 46q64 50 64 125h143z" />
    <glyph glyph-name="Idotaccent" unicode="&#x130;" horiz-adv-x="570" 
d="M185 0v1465h200v-1465h-200zM283 1820q49 0 83.5 -34t34.5 -83t-34.5 -83.5t-83.5 -34.5t-83 34.5t-34 83.5t34 83t83 34z" />
    <glyph glyph-name="dotlessi" unicode="&#x131;" horiz-adv-x="584" 
d="M227 0v911h-147v160h340v-1071h-193z" />
    <glyph glyph-name="Lacute" unicode="&#x139;" horiz-adv-x="1037" 
d="M150 0v1465h200v-1285h662v-180h-862zM604 1918l-226 -333h-140l169 333h197z" />
    <glyph glyph-name="lacute" unicode="&#x13a;" horiz-adv-x="604" 
d="M150 303v1207h190v-1175q0 -84 48 -134.5t131 -50.5v-170q-369 0 -369 323zM544 1918l-226 -333h-140l169 333h197z" />
    <glyph glyph-name="Lcaron" unicode="&#x13d;" horiz-adv-x="1037" 
d="M150 0v1465h200v-1285h662v-180h-862zM586 1064l-47 63q91 73 91 125q0 29 -34.5 66.5t-34.5 69.5q0 103 102 103q108 0 108 -124q0 -188 -185 -303z" />
    <glyph glyph-name="lcaron" unicode="&#x13e;" horiz-adv-x="705" 
d="M150 303v1207h190v-1175q0 -84 48 -134.5t131 -50.5v-170q-369 0 -369 323zM526 1083l-47 63q91 73 91 125q0 29 -34.5 66.5t-34.5 69.5q0 103 102 103q108 0 108 -124q0 -188 -185 -303z" />
    <glyph glyph-name="Ldot" unicode="&#x13f;" horiz-adv-x="1037" 
d="M150 0v1465h200v-1285h662v-180h-862zM695 850q49 0 83.5 -34t34.5 -83t-34.5 -83.5t-83.5 -34.5t-83 34.5t-34 83.5t34 83t83 34z" />
    <glyph glyph-name="ldot" unicode="&#x140;" horiz-adv-x="675" 
d="M150 303v1207h190v-1175q0 -84 48 -134.5t131 -50.5v-170q-369 0 -369 323zM635 890q49 0 83.5 -34t34.5 -83t-34.5 -83.5t-83.5 -34.5t-83 34.5t-34 83.5t34 83t83 34z" />
    <glyph glyph-name="Lslash" unicode="&#x141;" horiz-adv-x="1037" 
d="M485 1045v-131l-135 -95v-639h662v-180h-862v679l-152 -106v144l152 102v646h200v-511z" />
    <glyph glyph-name="lslash" unicode="&#x142;" horiz-adv-x="610" 
d="M156 303v382l-107 -74v144l107 72v683h190v-555q24 16 139 90v-131l-139 -97v-482q0 -84 48 -134.5t131 -50.5v-170q-369 0 -369 323z" />
    <glyph glyph-name="Nacute" unicode="&#x143;" horiz-adv-x="1307" 
d="M1097 -20l-757 1071v-1051h-190v1465h80l737 -1013v1013h190v-1485h-60zM864 1918l-226 -333h-140l169 333h197z" />
    <glyph glyph-name="nacute" unicode="&#x144;" horiz-adv-x="1119" 
d="M794 0v623q0 150 -38 217q-50 91 -186 91q-67 0 -137 -39.5t-108 -95.5v-796h-190v1071h130l60 -138q94 158 307 158q352 0 352 -428v-663h-190zM794 1618l-226 -333h-140l169 333h197z" />
    <glyph glyph-name="Ncaron" unicode="&#x147;" horiz-adv-x="1307" 
d="M1097 -20l-757 1071v-1051h-190v1465h80l737 -1013v1013h190v-1485h-60zM959 1919l-305 -334h-107l-298 338h172l178 -192l163 188h197z" />
    <glyph glyph-name="ncaron" unicode="&#x148;" horiz-adv-x="1119" 
d="M794 0v623q0 150 -38 217q-50 91 -186 91q-67 0 -137 -39.5t-108 -95.5v-796h-190v1071h130l60 -138q94 158 307 158q352 0 352 -428v-663h-190zM929 1619l-305 -334h-107l-298 338h172l178 -192l163 188h197z" />
    <glyph glyph-name="Odblacute" unicode="&#x150;" horiz-adv-x="1380" 
d="M80 745q0 301 141 508q162 238 449 238q322 0 485 -218q145 -195 145 -528q0 -338 -143 -539q-163 -231 -487 -231q-297 0 -455 246q-135 210 -135 524zM290 745q0 -223 78 -384q102 -206 302 -206q228 0 335 191q85 151 85 399q0 566 -420 566q-208 0 -305 -190
q-75 -146 -75 -376zM750 1868l-199 -283h-140l142 283h197zM1120 1868l-199 -283h-140l142 283h197z" />
    <glyph glyph-name="odblacute" unicode="&#x151;" horiz-adv-x="1099" 
d="M65 538q0 236 122 388q133 165 363 165q241 0 368 -159q116 -146 116 -394q0 -245 -117 -394q-129 -164 -367 -164q-239 0 -368 163q-117 149 -117 395zM265 538q0 -403 285 -403q150 0 225 133q59 107 59 270q0 398 -284 398q-149 0 -224 -131q-61 -107 -61 -267z
M620 1568l-199 -283h-140l142 283h197zM990 1568l-199 -283h-140l142 283h197z" />
    <glyph glyph-name="OE" unicode="&#x152;" horiz-adv-x="2034" 
d="M1287 1285v-407h484v-170h-484v-528h664v-180h-864v138q-161 -163 -430 -163q-297 0 -455 246q-135 210 -135 524q0 301 141 508q162 238 449 238q270 0 430 -156v130h875v-180h-675zM277 745q0 -223 78 -384q102 -206 302 -206q228 0 335 191q85 151 85 399
q0 566 -420 566q-208 0 -305 -190q-75 -146 -75 -376z" />
    <glyph glyph-name="oe" unicode="&#x153;" horiz-adv-x="1893" 
d="M942 892q149 199 389 199q218 0 351.5 -130t133.5 -348q0 -46 -15 -96h-762q0 -162 81 -265q88 -112 246 -112q168 0 274 101l80 -152q-124 -109 -391 -109q-254 0 -396 193q-129 -193 -387 -193q-239 0 -368 163q-117 149 -117 395q0 236 122 388q133 165 363 165
q271 0 396 -199zM1039 655h598q0 129 -90 205q-85 71 -217 71q-106 0 -197 -85q-94 -86 -94 -191zM261 538q0 -388 285 -388q151 0 224 125q60 101 60 263q0 383 -284 383q-151 0 -224 -122q-61 -100 -61 -261z" />
    <glyph glyph-name="Racute" unicode="&#x154;" horiz-adv-x="1192" 
d="M963 0l-391 629q-67 0 -212 10v-639h-200v1465q61 0 183 7.5t183 7.5q528 0 528 -420q0 -131 -79 -242q-83 -115 -208 -144l425 -674h-229zM360 1285v-476q72 -10 140 -10q169 0 246 48q98 60 98 217q0 140 -121 194q-83 37 -245 37q-30 0 -118 -10zM744 1918l-226 -333
h-140l169 333h197z" />
    <glyph glyph-name="racute" unicode="&#x155;" horiz-adv-x="796" 
d="M717 888q-62 43 -125 43q-113 0 -186 -105q-66 -95 -66 -212v-614h-190v1071h190v-171q104 191 309 191q51 0 147 -18zM694 1618l-226 -333h-140l169 333h197z" />
    <glyph glyph-name="Rcaron" unicode="&#x158;" horiz-adv-x="1192" 
d="M963 0l-391 629q-67 0 -212 10v-639h-200v1465q61 0 183 7.5t183 7.5q528 0 528 -420q0 -131 -79 -242q-83 -115 -208 -144l425 -674h-229zM360 1285v-476q72 -10 140 -10q169 0 246 48q98 60 98 217q0 140 -121 194q-83 37 -245 37q-30 0 -118 -10zM920 1919l-305 -334
h-107l-298 338h172l178 -192l163 188h197z" />
    <glyph glyph-name="rcaron" unicode="&#x159;" horiz-adv-x="796" 
d="M717 888q-62 43 -125 43q-113 0 -186 -105q-66 -95 -66 -212v-614h-190v1071h190v-171q104 191 309 191q51 0 147 -18zM809 1619l-305 -334h-107l-298 338h172l178 -192l163 188h197z" />
    <glyph glyph-name="Sacute" unicode="&#x15a;" horiz-adv-x="985" 
d="M84 67l73 184q131 -96 289 -96q109 0 181 58q78 62 78 169q0 105 -71 174q-49 47 -167 102l-118 55q-269 125 -269 397q0 172 123 279q116 101 291 101q243 0 338 -79l-59 -174q-48 34 -130 58.5t-144 24.5q-97 0 -157 -54q-62 -57 -62 -153q0 -113 80 -179
q40 -33 153 -87l120 -57q144 -68 207.5 -165t63.5 -255q0 -188 -154 -298q-137 -97 -333 -97q-195 0 -333 92zM760 1918l-226 -333h-140l169 333h197z" />
    <glyph glyph-name="sacute" unicode="&#x15b;" horiz-adv-x="829" 
d="M65 64l67 180q159 -104 256 -104q176 0 176 148q0 105 -170 182q-98 44 -137 67q-75 43 -118 95q-67 78 -67 179q0 140 107 215q94 65 240 65q117 0 295 -74l-54 -176q-113 90 -227 90q-60 0 -106 -26q-55 -32 -55 -87q0 -103 117 -156l136 -62q239 -109 239 -313
q0 -157 -116 -237q-101 -70 -265 -70q-169 0 -318 84zM654 1618l-226 -333h-140l169 333h197z" />
    <glyph glyph-name="Scedilla" unicode="&#x15e;" horiz-adv-x="985" 
d="M84 67l73 184q131 -96 289 -96q109 0 181 58q78 62 78 169q0 105 -71 174q-49 47 -167 102l-118 55q-269 125 -269 397q0 172 123 279q116 101 291 101q243 0 338 -79l-59 -174q-48 34 -130 58.5t-144 24.5q-97 0 -157 -54q-62 -57 -62 -153q0 -113 80 -179
q40 -33 153 -87l120 -57q144 -68 207.5 -165t63.5 -255q0 -188 -154 -298q-137 -97 -333 -97q-195 0 -333 92zM305 -455l-24 99q65 0 114 20q68 27 68 82q0 74 -90 74v119q91 0 148 -51q61 -53 61 -142q0 -106 -90 -159q-73 -42 -187 -42z" />
    <glyph glyph-name="scedilla" unicode="&#x15f;" horiz-adv-x="829" 
d="M65 64l67 180q159 -104 256 -104q176 0 176 148q0 105 -170 182q-98 44 -137 67q-75 43 -118 95q-67 78 -67 179q0 140 107 215q94 65 240 65q117 0 295 -74l-54 -176q-113 90 -227 90q-60 0 -106 -26q-55 -32 -55 -87q0 -103 117 -156l136 -62q239 -109 239 -313
q0 -157 -116 -237q-101 -70 -265 -70q-169 0 -318 84zM225 -455l-24 99q65 0 114 20q68 27 68 82q0 74 -90 74v119q91 0 148 -51q61 -53 61 -142q0 -106 -90 -159q-73 -42 -187 -42z" />
    <glyph glyph-name="Scaron" unicode="&#x160;" horiz-adv-x="985" 
d="M84 67l73 184q131 -96 289 -96q109 0 181 58q78 62 78 169q0 105 -71 174q-49 47 -167 102l-118 55q-269 125 -269 397q0 172 123 279q116 101 291 101q243 0 338 -79l-59 -174q-48 34 -130 58.5t-144 24.5q-97 0 -157 -54q-62 -57 -62 -153q0 -113 80 -179
q40 -33 153 -87l120 -57q144 -68 207.5 -165t63.5 -255q0 -188 -154 -298q-137 -97 -333 -97q-195 0 -333 92zM859 1919l-305 -334h-107l-298 338h172l178 -192l163 188h197z" />
    <glyph glyph-name="scaron" unicode="&#x161;" horiz-adv-x="829" 
d="M65 64l67 180q159 -104 256 -104q176 0 176 148q0 105 -170 182q-98 44 -137 67q-75 43 -118 95q-67 78 -67 179q0 140 107 215q94 65 240 65q117 0 295 -74l-54 -176q-113 90 -227 90q-60 0 -106 -26q-55 -32 -55 -87q0 -103 117 -156l136 -62q239 -109 239 -313
q0 -157 -116 -237q-101 -70 -265 -70q-169 0 -318 84zM762 1619l-305 -334h-107l-298 338h172l178 -192l163 188h197z" />
    <glyph glyph-name="Tcedilla" unicode="&#x162;" horiz-adv-x="1189" 
d="M684 1285v-1285h-200v1285h-466v180h1153v-180h-487zM504 -537l-47 63q91 73 91 125q0 29 -34.5 66.5t-34.5 69.5q0 103 102 103q108 0 108 -124q0 -188 -185 -303z" />
    <glyph glyph-name="tcedilla" unicode="&#x163;" horiz-adv-x="812" 
d="M203 921h-124v150h124v224l190 73v-297h294v-150h-294v-532q0 -120 35 -177q45 -72 157 -72q73 0 151 37l28 -167q-118 -30 -259 -30q-135 0 -221 101q-81 95 -81 232v608zM386 -537l-47 63q91 73 91 125q0 29 -34.5 66.5t-34.5 69.5q0 103 102 103q108 0 108 -124
q0 -188 -185 -303z" />
    <glyph glyph-name="Tcaron" unicode="&#x164;" horiz-adv-x="1189" 
d="M684 1285v-1285h-200v1285h-466v180h1153v-180h-487zM949 1919l-305 -334h-107l-298 338h172l178 -192l163 188h197z" />
    <glyph glyph-name="tcaron" unicode="&#x165;" horiz-adv-x="1016" 
d="M203 921h-124v150h124v224l190 73v-297h294v-150h-294v-532q0 -120 35 -177q45 -72 157 -72q73 0 151 37l28 -167q-118 -30 -259 -30q-135 0 -221 101q-81 95 -81 232v608zM809 952l-47 63q91 73 91 125q0 29 -34.5 66.5t-34.5 69.5q0 103 102 103q108 0 108 -124
q0 -188 -185 -303z" />
    <glyph glyph-name="Uring" unicode="&#x16e;" horiz-adv-x="1328" 
d="M150 1465h200v-1003q0 -137 86 -222t224 -85q147 0 232.5 83t85.5 229v998h200v-1019q0 -229 -146 -354q-137 -117 -370 -117q-239 0 -372 115q-140 122 -140 357v1018zM678 1904q88 0 149.5 -60.5t61.5 -148.5t-61.5 -149t-149.5 -61t-150 61t-62 149t62 148.5t150 60.5
zM678 1595q42 0 71.5 29t29.5 71t-29.5 70.5t-71.5 28.5t-72 -28.5t-30 -70.5t30 -71t72 -29z" />
    <glyph glyph-name="uring" unicode="&#x16f;" horiz-adv-x="1119" 
d="M315 1071v-683q0 -248 215 -248q86 0 166.5 50t108.5 129v752h190v-1071h-190v148q-36 -70 -138 -121q-95 -47 -179 -47q-180 0 -274 105q-89 101 -89 283v703h190zM588 1704q88 0 149.5 -60.5t61.5 -148.5t-61.5 -149t-149.5 -61t-150 61t-62 149t62 148.5t150 60.5z
M588 1395q42 0 71.5 29t29.5 71t-29.5 70.5t-71.5 28.5t-72 -28.5t-30 -70.5t30 -71t72 -29z" />
    <glyph glyph-name="Udblacute" unicode="&#x170;" horiz-adv-x="1328" 
d="M150 1465h200v-1003q0 -137 86 -222t224 -85q147 0 232.5 83t85.5 229v998h200v-1019q0 -229 -146 -354q-137 -117 -370 -117q-239 0 -372 115q-140 122 -140 357v1018zM720 1868l-199 -283h-140l142 283h197zM1090 1868l-199 -283h-140l142 283h197z" />
    <glyph glyph-name="udblacute" unicode="&#x171;" horiz-adv-x="1119" 
d="M315 1071v-683q0 -248 215 -248q86 0 166.5 50t108.5 129v752h190v-1071h-190v148q-36 -70 -138 -121q-95 -47 -179 -47q-180 0 -274 105q-89 101 -89 283v703h190zM630 1568l-199 -283h-140l142 283h197zM1000 1568l-199 -283h-140l142 283h197z" />
    <glyph glyph-name="Ydieresis" unicode="&#x178;" horiz-adv-x="1168" 
d="M685 656v-656h-200v656l-472 809h206l365 -640l365 640h206zM354 1813q47 0 79.5 -32.5t32.5 -79.5t-32.5 -80t-79.5 -33t-80 33t-33 80t33 79.5t80 32.5zM826 1813q47 0 80 -32.5t33 -79.5t-33 -80t-80 -33t-79.5 33t-32.5 80t32.5 79.5t79.5 32.5z" />
    <glyph glyph-name="Zacute" unicode="&#x179;" horiz-adv-x="1127" 
d="M100 0v50l630 1235h-620v180h895v-50l-632 -1235h654v-180h-927zM703 1918l-226 -333h-140l169 333h197z" />
    <glyph glyph-name="zacute" unicode="&#x17a;" horiz-adv-x="972" 
d="M338 170h594v-170h-892v50l609 851h-599v170h876v-54zM673 1618l-226 -333h-140l169 333h197z" />
    <glyph glyph-name="Zdot" unicode="&#x17b;" horiz-adv-x="1127" 
d="M100 0v50l630 1235h-620v180h895v-50l-632 -1235h654v-180h-927zM494 1820q49 0 83.5 -34t34.5 -83t-34.5 -83.5t-83.5 -34.5t-83 34.5t-34 83.5t34 83t83 34z" />
    <glyph glyph-name="zdot" unicode="&#x17c;" horiz-adv-x="972" 
d="M338 170h594v-170h-892v50l609 851h-599v170h876v-54zM494 1520q49 0 83.5 -34t34.5 -83t-34.5 -83.5t-83.5 -34.5t-83 34.5t-34 83.5t34 83t83 34z" />
    <glyph glyph-name="Zcaron" unicode="&#x17d;" horiz-adv-x="1127" 
d="M100 0v50l630 1235h-620v180h895v-50l-632 -1235h654v-180h-927zM898 1919l-305 -334h-107l-298 338h172l178 -192l163 188h197z" />
    <glyph glyph-name="zcaron" unicode="&#x17e;" horiz-adv-x="972" 
d="M338 170h594v-170h-892v50l609 851h-599v170h876v-54zM828 1619l-305 -334h-107l-298 338h172l178 -192l163 188h197z" />
    <glyph glyph-name="florin" unicode="&#x192;" horiz-adv-x="795" 
d="M802 1332q-76 28 -118 28q-199 0 -237 -288q34 -2 70 -2q84 0 181 10l-13 -116q-167 -24 -265 -29l-165 -1008q-24 -145 -128 -234q-99 -84 -249 -101q-3 6 -11 25q-2 8 -11 34l-19 57q-7 19 -13 39q76 15 146 61q84 55 95 119l166 999q-44 0 -151 -13l30 158l147 1
q88 438 439 438q53 0 142 -30z" />
    <glyph glyph-name="circumflex" unicode="&#x2c6;" 
d="M682 1285l-163 189l-178 -189h-172l298 338h107l305 -338h-197z" />
    <glyph glyph-name="caron" unicode="&#x2c7;" 
d="M879 1619l-305 -334h-107l-298 338h172l178 -192l163 188h197z" />
    <glyph glyph-name="macron" unicode="&#x2c9;" 
d="M913 1426v-141h-738v141h738z" />
    <glyph glyph-name="breve" unicode="&#x2d8;" 
d="M870 1610q0 -137 -104 -233q-102 -92 -240 -92q-144 0 -231.5 90.5t-87.5 234.5h141q-3 -67 53.5 -119t124.5 -52q78 0 137 46q64 50 64 125h143z" />
    <glyph glyph-name="dotaccent" unicode="&#x2d9;" 
d="M535 1520q49 0 83.5 -34t34.5 -83t-34.5 -83.5t-83.5 -34.5t-83 34.5t-34 83.5t34 83t83 34z" />
    <glyph glyph-name="ring" unicode="&#x2da;" 
d="M508 1704q88 0 149.5 -60.5t61.5 -148.5t-61.5 -149t-149.5 -61t-150 61t-62 149t62 148.5t150 60.5zM508 1395q42 0 71.5 29t29.5 71t-29.5 70.5t-71.5 28.5t-72 -28.5t-30 -70.5t30 -71t72 -29z" />
    <glyph glyph-name="ogonek" unicode="&#x2db;" 
d="M714 -196l67 -142q-96 -35 -178 -35q-115 0 -191 66q-81 69 -81 182q0 174 205 286l58 -161q-56 -27 -74 -50q-24 -28 -24 -83q0 -94 111 -94q54 0 107 31z" />
    <glyph glyph-name="tilde" unicode="&#x2dc;" 
d="M840 1492q-53 -207 -192 -207q-56 0 -137.5 38.5t-107.5 38.5q-71 0 -108 -77h-91q13 79 58 138q53 69 126 69q69 0 149 -38.5t107 -38.5q81 0 108 77h88z" />
    <glyph glyph-name="hungarumlaut" unicode="&#x2dd;" 
d="M540 1568l-199 -283h-140l142 283h197zM910 1568l-199 -283h-140l142 283h197z" />
    <glyph glyph-name="Delta" unicode="&#x394;" horiz-adv-x="1198" 
d="M25 0v124l526 1341h144l480 -1341v-124h-1150zM619 1216l-376 -1046h725z" />
    <glyph glyph-name="Omega" unicode="&#x3a9;" horiz-adv-x="1370" 
d="M1295 0h-500v152q148 136 214 264q76 145 76 329q0 566 -415 566q-208 0 -308 -189q-77 -148 -77 -377q0 -153 82 -330q88 -188 208 -265v-150h-500v150h269q-269 209 -269 595q0 301 144 509q164 237 451 237q322 0 483 -219q142 -193 142 -527q0 -179 -72 -334
q-76 -166 -217 -261h289v-150z" />
    <glyph glyph-name="mu" unicode="&#x3bc;" horiz-adv-x="1119" 
d="M325 18v-438h-190v1491h190v-623q0 -302 235 -302q76 0 142.5 40t92.5 109v776h190v-1071h-190v148q-36 -80 -118 -125q-77 -43 -169 -43q-108 0 -183 38z" />
    <glyph glyph-name="pi" unicode="&#x3c0;" horiz-adv-x="1232" 
d="M982 0h-193v911h-337v-911h-193v911h-167v160h1048v-160h-158v-911z" />
    <glyph glyph-name="endash" unicode="&#x2013;" horiz-adv-x="752" 
d="M93 532v96h521v-96h-521z" />
    <glyph glyph-name="emdash" unicode="&#x2014;" horiz-adv-x="1504" 
d="M93 532v96h1309v-96h-1309z" />
    <glyph glyph-name="quoteleft" unicode="&#x2018;" horiz-adv-x="752" 
d="M449 948l-94 -60q-121 160 -121 338q0 104 37 182q47 102 139 102q61 0 107 -38q50 -40 50 -99q0 -86 -51 -116q-23 -13 -86 -48q-48 -33 -48 -103q0 -44 67 -158z" />
    <glyph glyph-name="quoteright" unicode="&#x2019;" horiz-adv-x="752" 
d="M266 901l-67 89l75 64q55 47 55 115q0 41 -49 95t-49 99q0 147 145 147q155 0 155 -177q0 -265 -265 -432z" />
    <glyph glyph-name="quotesinglbase" unicode="&#x201a;" horiz-adv-x="752" 
d="M279 -363l-51 72q172 141 172 240q0 44 -30 88q-86 41 -86 118q0 57 45 91q41 31 99 31q59 0 102 -51q40 -49 40 -109q0 -160 -79 -277q-62 -91 -212 -203z" />
    <glyph glyph-name="quotedblleft" unicode="&#x201c;" 
d="M449 948l-94 -60q-121 160 -121 338q0 104 37 182q47 102 139 102q61 0 107 -38q50 -40 50 -99q0 -86 -51 -116q-23 -13 -86 -48q-48 -33 -48 -103q0 -44 67 -158zM909 948l-94 -60q-121 160 -121 338q0 104 37 182q47 102 139 102q61 0 107 -38q50 -40 50 -99
q0 -86 -51 -116q-23 -13 -86 -48q-48 -33 -48 -103q0 -44 67 -158z" />
    <glyph glyph-name="quotedblright" unicode="&#x201d;" 
d="M266 901l-67 89l75 64q55 47 55 115q0 41 -49 95t-49 99q0 147 145 147q155 0 155 -177q0 -265 -265 -432zM726 901l-67 89l75 64q55 47 55 115q0 41 -49 95t-49 99q0 147 145 147q155 0 155 -177q0 -265 -265 -432z" />
    <glyph glyph-name="quotedblbase" unicode="&#x201e;" 
d="M224 -363l-51 72q172 141 172 240q0 44 -30 88q-86 41 -86 118q0 57 45 91q41 31 99 31q59 0 102 -51q40 -49 40 -109q0 -160 -79 -277q-62 -91 -212 -203zM654 -363l-51 72q172 141 172 240q0 44 -30 88q-86 41 -86 118q0 57 45 91q41 31 99 31q59 0 102 -51
q40 -49 40 -109q0 -160 -79 -277q-62 -91 -212 -203z" />
    <glyph glyph-name="dagger" unicode="&#x2020;" horiz-adv-x="940" 
d="M395 931h-370v140h370v314h150v-314h370v-140h-370v-1181l-74 -88l-76 88v1181z" />
    <glyph glyph-name="daggerdbl" unicode="&#x2021;" horiz-adv-x="940" 
d="M915 381v-140h-370v-491l-76 -94l-74 94v491h-370v140h370v550h-370v140h370v314h150v-314h370v-140h-370v-550h370z" />
    <glyph glyph-name="bullet" unicode="&#x2022;" 
d="M542 863q121 0 205 -84t84 -205t-84 -205t-205 -84t-205 84t-84 205t84 205t205 84z" />
    <glyph glyph-name="ellipsis" unicode="&#x2026;" horiz-adv-x="1504" 
d="M400 131q0 -62 -44 -106.5t-106 -44.5t-106 44.5t-44 106.5t44 106t106 44t106 -44t44 -106zM902 131q0 -62 -44 -106.5t-106 -44.5t-106 44.5t-44 106.5t44 106t106 44t106 -44t44 -106zM1404 131q0 -62 -44 -106.5t-106 -44.5t-106 44.5t-44 106.5t44 106t106 44
t106 -44t44 -106z" />
    <glyph glyph-name="perthousand" unicode="&#x2030;" horiz-adv-x="1869" 
d="M218 -20h-127l883 1511h126zM61 1162q0 138 73 230q80 99 214 99q139 0 210 -109q60 -92 60 -239q0 -141 -67 -234q-76 -105 -212 -105q-278 0 -278 358zM187 1152q0 -91 27 -156q37 -90 116 -90q162 0 162 245q0 238 -147 238q-84 0 -126 -81q-32 -63 -32 -156zM601 338
q0 138 73 230q80 99 214 99q139 0 210 -109q60 -92 60 -239q0 -141 -67 -234q-76 -105 -212 -105q-278 0 -278 358zM727 328q0 -91 27 -156q37 -90 116 -90q162 0 162 245q0 238 -147 238q-84 0 -126 -81q-32 -63 -32 -156zM1251 338q0 138 73 230q80 99 214 99
q139 0 210 -109q60 -92 60 -239q0 -141 -67 -234q-76 -105 -212 -105q-278 0 -278 358zM1377 328q0 -91 27 -156q37 -90 116 -90q162 0 162 245q0 238 -147 238q-84 0 -126 -81q-32 -63 -32 -156z" />
    <glyph glyph-name="guilsinglleft" unicode="&#x2039;" horiz-adv-x="752" 
d="M171 535v64l355 244v-125l-212 -157l212 -138v-125z" />
    <glyph glyph-name="guilsinglright" unicode="&#x203a;" horiz-adv-x="752" 
d="M566 535l-355 -237v125l212 138l-212 157v125l355 -244v-64z" />
    <glyph glyph-name="fraction" unicode="&#x2044;" horiz-adv-x="1083" 
d="M131 -35h-127l973 1526h126z" />
    <glyph glyph-name="franc" unicode="&#x20a3;" horiz-adv-x="1075" 
d="M350 1285v-407h515v-170h-515v-207h149v-160h-149v-341h-200v341h-135v160h135v964h905v-180h-705z" />
    <glyph glyph-name="euro" unicode="&#x20ac;" 
d="M805 928l-58 -141h-414q-3 -37 -3 -71q0 -28 2 -60h347l-49 -141h-283q14 -133 109 -242q103 -118 231 -118q90 0 187.5 40t156.5 103v-217q-140 -106 -365 -106q-216 0 -359 167q-124 145 -160 373h-116v141h98q-3 38 -3 74q0 29 2 57h-97v141h115q37 234 175 389
q154 173 378 173q250 0 353 -93l-89 -164q-101 77 -259 77q-153 0 -250 -118q-84 -102 -108 -264h459z" />
    <glyph glyph-name="trademark" unicode="&#x2122;" horiz-adv-x="1300" 
d="M499 1381v-643h-100v643h-208v90h527v-90h-219zM1254 739l-83 498l-147 -503h-59l-155 510l-77 -505h-95l112 732h75l169 -567l167 567h75l113 -732h-95z" />
    <glyph glyph-name="Ohm" unicode="&#x2126;" horiz-adv-x="1370" 
d="M1295 0h-500v152q148 136 214 264q76 145 76 329q0 566 -415 566q-208 0 -308 -189q-77 -148 -77 -377q0 -153 82 -330q88 -188 208 -265v-150h-500v150h269q-269 209 -269 595q0 301 144 509q164 237 451 237q322 0 483 -219q142 -193 142 -527q0 -179 -72 -334
q-76 -166 -217 -261h289v-150z" />
    <glyph glyph-name="partialdiff" unicode="&#x2202;" horiz-adv-x="1125" 
d="M592 1079q0 81 -191 194q-180 107 -274 107l44 161q198 0 416 -168q193 -148 302 -341q125 -224 125 -483q0 -241 -132 -400q-141 -170 -377 -170q-450 0 -450 489q0 232 150 416q159 195 387 195zM718 920q-207 0 -338 -122q-135 -125 -135 -330q0 -142 63 -225
q70 -93 207 -93q160 0 241 130q68 108 68 278q0 256 -106 362z" />
    <glyph glyph-name="ch259" unicode="&#x2206;" horiz-adv-x="1198" 
d="M25 0v124l526 1341h144l480 -1341v-124h-1150zM619 1216l-376 -1046h725z" />
    <glyph glyph-name="product" unicode="&#x220f;" horiz-adv-x="1132" 
d="M365 1285l-1 -1455h-200v1455h-130v180h1050v-180h-130v-1455h-200v1455h-389z" />
    <glyph glyph-name="summation" unicode="&#x2211;" horiz-adv-x="1075" 
d="M329 1285l399 -546l-409 -732h683v-180h-914v180l400 732l-400 566v160h875v-180h-634z" />
    <glyph glyph-name="minus" unicode="&#x2212;" 
d="M960 706v-141h-838v141h838z" />
    <glyph glyph-name="periodcentered" unicode="&#x2219;" horiz-adv-x="752" 
d="M355 801q62 0 106 -44t44 -106t-44 -106.5t-106 -44.5t-106 44.5t-44 106.5t44 106t106 44z" />
    <glyph glyph-name="radical" unicode="&#x221a;" 
d="M751 1349l-384 -1349h-142l-209 268l98 83l150 -194l374 1314h450v-122h-337z" />
    <glyph glyph-name="infinity" unicode="&#x221e;" 
d="M537 596q-114 -144 -238 -144q-111 0 -176 53q-71 57 -71 166q0 97 70 157q66 58 164 58q145 0 250 -129q105 129 255 129q98 0 165.5 -59t67.5 -156q0 -107 -71 -165q-65 -54 -175 -54q-127 0 -241 144zM598 674q85 -119 190 -119q130 0 130 116t-140 116
q-76 0 -180 -113zM479 674q-104 113 -180 113q-140 0 -140 -116t130 -116q105 0 190 119z" />
    <glyph glyph-name="integral" unicode="&#x222b;" 
d="M-22 -297l100 142q77 -95 170 -95q77 0 121 86q36 70 36 155v1073q0 173 102 304q111 142 279 142q161 0 280 -102l-124 -142q-59 74 -166 74q-102 0 -135 -112q-17 -59 -17 -194v-1011q0 -177 -82 -301q-94 -142 -263 -142q-178 0 -301 123z" />
    <glyph glyph-name="approxequal" unicode="&#x2248;" 
d="M904 836q-53 -207 -192 -207q-62 0 -183.5 38.5t-171.5 38.5q-71 0 -108 -77h-91q13 79 58 138q53 69 126 69q66 0 190.5 -38.5t175.5 -38.5q81 0 108 77h88zM904 506q-53 -207 -192 -207q-62 0 -183.5 38.5t-171.5 38.5q-71 0 -108 -77h-91q13 79 58 138q53 69 126 69
q66 0 190.5 -38.5t175.5 -38.5q81 0 108 77h88z" />
    <glyph glyph-name="approxequal" unicode="&#x22f2;" 
d="M904 836q-53 -207 -192 -207q-62 0 -183.5 38.5t-171.5 38.5q-71 0 -108 -77h-91q13 79 58 138q53 69 126 69q66 0 190.5 -38.5t175.5 -38.5q81 0 108 77h88zM904 506q-53 -207 -192 -207q-62 0 -183.5 38.5t-171.5 38.5q-71 0 -108 -77h-91q13 79 58 138q53 69 126 69
q66 0 190.5 -38.5t175.5 -38.5q81 0 108 77h88z" />
    <glyph glyph-name="notequal" unicode="&#x2260;" 
d="M822 1051h139l-143 -175h142v-141h-257l-162 -199h419v-141h-534l-165 -202h-138l165 202h-166v141h280l163 199h-443v141h557z" />
    <glyph glyph-name="lessequal" unicode="&#x2264;" 
d="M150 594v123l739 354v-161l-571 -255l571 -258v-161zM960 121v-141h-838v141h838z" />
    <glyph glyph-name="greaterequal" unicode="&#x2265;" 
d="M932 594l-739 -358v161l571 258l-571 255v161l739 -354v-123zM122 121h838v-141h-838v141z" />
    <glyph glyph-name="lozenge" unicode="&#x25ca;" horiz-adv-x="1012" 
d="M549 1422l418 -713l-418 -709h-111l-391 709l391 713h111zM495 1325l-340 -616l340 -615l359 615z" />
    <glyph glyph-name="apple" unicode="&#xf000;" horiz-adv-x="1028" 
 />
    <glyph glyph-name="fi" unicode="&#xf001;" horiz-adv-x="1187" 
d="M843 0v911h-444v-911h-190v911h-156v160h156q0 188 88 306q99 133 280 133q83 0 178 -30l-53 -140q-58 20 -108 20q-93 0 -149 -72q-51 -66 -51 -161q0 -27 5 -56h637v-1071h-193zM917 1476q49 0 83.5 -34t34.5 -83t-34.5 -83.5t-83.5 -34.5t-83 34.5t-34 83.5t34 83
t83 34z" />
    <glyph glyph-name="fl" unicode="&#xf002;" horiz-adv-x="1230" 
d="M1145 -20q-176 0 -252.5 74t-76.5 249v982q-65 75 -210 75q-93 0 -149 -72q-51 -66 -51 -161q0 -27 5 -56h188v-160h-188v-911h-190v911h-156v160h156q0 188 88 306q99 133 280 133q147 0 227 -47v27h190v-1155q0 -185 139 -185v-170z" />
    <glyph glyph-name="commaaccenthigh" unicode="&#xf005;" horiz-adv-x="752" 
d="M296 1083l-47 63q91 73 91 125q0 29 -34.5 66.5t-34.5 69.5q0 103 102 103q108 0 108 -124q0 -188 -185 -303z" />
    <glyph glyph-name="dotlessj" unicode="&#xf006;" horiz-adv-x="751" 
d="M18 -420v170q170 0 243 43q98 57 98 212v906h-213v160h403v-1062q0 -429 -531 -429z" />
    <glyph glyph-name="f007" unicode="&#xf007;" horiz-adv-x="752" 
d="M411 1718l54 -57q-78 -77 -78 -122q0 -35 42 -74.5t42 -81.5q0 -98 -106 -98q-108 0 -108 145q0 168 154 288z" />
    <glyph glyph-name="glyph302" horiz-adv-x="617" 
 />
    <glyph glyph-name="glyph303" horiz-adv-x="752" 
 />
    </font>
</defs>
</svg>
